<svg xmlns="http://www.w3.org/2000/svg" xmlns:xlink="http://www.w3.org/1999/xlink" viewBox="0 0 255 468.99"><defs><style>.cls-1{fill:#a09002;}.cls-2{fill:url(#radial-gradient);}.cls-3{fill:#ccbd00;}.cls-4{fill:#7f7000;}.cls-5{fill:#fff;}</style><radialGradient id="radial-gradient" cx="129.5" cy="295.83" r="175.53" gradientUnits="userSpaceOnUse"><stop offset="0.7" stop-color="#a09002"/><stop offset="1" stop-color="#463802"/></radialGradient></defs><title>boya_amarilla</title><g id="Layer_2" data-name="Layer 2"><g id="Layer_2-2" data-name="Layer 2"><path class="cls-1" d="M255,310H0v31H0c0,.17,0,.34,0,.5a127.5,127.5,0,0,0,255,0c0-.16,0-.33,0-.5h0Z"/><path class="cls-1" d="M127.5,373C57.08,373,0,344.79,0,310v32H0c.55,34.57,57.41,62.5,127.49,62.5S254.44,376.56,255,342h0V310C255,344.79,197.92,373,127.5,373Z"/><path class="cls-2" d="M255,310H0v31H0c0,.17,0,.34,0,.5a127.5,127.5,0,0,0,255,0c0-.16,0-.33,0-.5h0Z"/><ellipse class="cls-3" cx="127.5" cy="309.99" rx="127.5" ry="63"/><path class="cls-4" d="M118.33,81.82V259.66c0,3.23,5.3,5.85,11.84,5.85S142,262.89,142,259.66V81.82Z"/><path class="cls-1" d="M81.31,52.42,30.45,330c-.58,3.18,4.17,6.7,10.6,7.87s12.11-.45,12.69-3.63L104.59,56.66Z"/><path class="cls-1" d="M179,52.42,229.88,330c.58,3.18-4.16,6.7-10.59,7.87s-12.11-.45-12.69-3.63L155.74,56.66Z"/><ellipse class="cls-3" cx="130.17" cy="52.32" rx="53.5" ry="29.5"/><ellipse class="cls-5" cx="130.17" cy="52.32" rx="37.42" ry="20.63"/><path class="cls-1" d="M130.17,81.82c-29.55,0-53.5-13.2-53.5-29.5v13c0,16.3,24,29.5,53.5,29.5s53.5-13.2,53.5-29.5v-13C183.67,68.62,159.71,81.82,130.17,81.82Z"/><path class="cls-3" d="M130.17,0a31,31,0,0,0-31,31V50.75c0,9.44,13.88,17.09,31,17.09s31-7.65,31-17.09V31A31,31,0,0,0,130.17,0Z"/><polygon class="cls-1" points="53.84 322.66 44.16 313.99 171.19 172.21 80.69 111.05 87.97 100.28 190.81 169.78 53.84 322.66"/><polygon class="cls-1" points="203.8 322.66 213.48 313.99 86.45 172.21 176.94 111.05 169.67 100.28 66.83 169.78 203.8 322.66"/></g></g></svg>