<svg xmlns="http://www.w3.org/2000/svg" viewBox="0 0 377.2 170.21"><defs><style>.cls-1{fill:#851215;fill-rule:evenodd;}.cls-2{fill:#706f6f;}.cls-3{fill:#9d9d9c;}.cls-4{fill:none;}</style></defs><title>SEMARNAT_CONABIO</title><g id="Layer_2" data-name="Layer 2"><g id="Capa_1" data-name="Capa 1"><path class="cls-1" d="M93.28,55.22a1.08,1.08,0,0,1,1.15,1,1.17,1.17,0,1,1-1.15-1m-3-2.63c1-.57,3.75-.61,5.17-.11a20.42,20.42,0,0,1,4.28,1.86c.79.63,3.4,2.91,3.56,3.52a3.77,3.77,0,0,1,0,2.23A4.94,4.94,0,0,1,102,61.75a15.47,15.47,0,0,1-4.07,1.46,26.85,26.85,0,0,1-3.43.38c-.68-.07-4.7-1.89-5-1.84s-1,1.53-1,1.53a4.41,4.41,0,0,1-2.11-3.91c.15-2.69.94-3.38,1.21-3.74s1-.6,1.23-1.06A3.79,3.79,0,0,1,90.33,52.59Z"/><path class="cls-1" d="M102,63.05c1-.72,1.75-1.93,2-1.92a9.08,9.08,0,0,1,2.43,2.08,32,32,0,0,1,2.41,3.38c1.36,2,3.83,6.14,4.36,8.54a41.41,41.41,0,0,1,.33,11.11c-.43,3.38-.65,6.85-.72,7-.16.36-.67,1.52-1.29,1.1a41.77,41.77,0,0,1-12.22-14.3c-.68-1.28-1.26-2.52-1.83-3.68a60.91,60.91,0,0,1-2.52-6,16.18,16.18,0,0,1-1-4,2.68,2.68,0,0,1,.43-1.81,4,4,0,0,1,1.09.1,15.28,15.28,0,0,0,1.89.06c2.29-.23,2.78-.29,4.72-1.69"/><path class="cls-1" d="M102.87,87.93c.37-.13.69.57,1.2,1s3.32,3.15,3.89,3.86a8.35,8.35,0,0,1,1.58,2.39c.31.89.4,1.53-.25,4.49s-3.83,16-5.63,21.9-2,7.25-2.15,7.62-.28.89-1,.81-1-.32-1.11-1.21a42,42,0,0,1,0-7.46c.25-3.11,1.11-8.59,1.11-11.75s-.44-4.73-.33-7a90.23,90.23,0,0,1,1.55-10.73c.44-1.94.79-3.89,1.16-4"/><path class="cls-1" d="M80.71,65.7c0-1.07.7-1.23,2-1.38a7.6,7.6,0,0,1,3.24.3,29.67,29.67,0,0,1,3.28,1.55,21.8,21.8,0,0,1,2.8,2.89,18.76,18.76,0,0,1,3,5.07,8.62,8.62,0,0,1,.77,3.29,11.62,11.62,0,0,1-1.94,2.78A7.17,7.17,0,0,1,87.6,83c-4-.31-5.84-3.41-6.85-4.09a10.18,10.18,0,0,0-2.25-1.44c-1.09-.42-1.2-.85-1-1.44s.63-1.21,1.93-1.15a19.66,19.66,0,0,1,2.79.42,2.21,2.21,0,0,0-1.27-.87c-.91-.27-2.61-.34-3.7-.65s-.86-1-.84-1.12,0-1.2,1.5-1.35,4.64-.2,4.64-.2-4.2-.75-4.67-.9a.94.94,0,0,1-.68-1,1.36,1.36,0,0,1,1.18-1.39A10,10,0,0,1,81,67.49c1,.07,3.93.58,3.93.58s.07-.39-1-.78-3.28-.52-3.27-1.59"/><path class="cls-1" d="M84.82,85.78c-.1-.89,0-1.2.24-1.3a38.14,38.14,0,0,1,4-.84A21.83,21.83,0,0,0,92.75,83a6,6,0,0,0,1.41-.86c.55-.53,2.09-2.09,2.77-2.24s1.15-.27,1.66.53A2.17,2.17,0,0,1,99,82.52,8,8,0,0,1,95.57,86c-2.09,1.22-2.74,1.34-3.53,1.36a33.57,33.57,0,0,1-5.66.18c-1.36-.26-1.47-.88-1.56-1.76"/><path class="cls-1" d="M86.23,88.73c1.33,0,5.56-.08,6.23-.2a8.72,8.72,0,0,0,3.17-1.12c1-.7,3.26-2.28,3.58-2.22s1.29.34,1.34,1.19A4.44,4.44,0,0,1,99,90.22c-1.65,1.61-4.66,2-6.45,2.31a20.74,20.74,0,0,1-4.15.49c-.64,0-3.11-.35-3.25-1.35s-.22-2.94,1.12-2.94"/><path class="cls-1" d="M99.27,92.45c.27-.12.19,4.89-.46,7.82S95.94,112,95.56,112.69s-3.41,2.22-4.36,2.67a35.65,35.65,0,0,1-3.42,1.25c-.16,0-1.28.54-1.23-.87A117.26,117.26,0,0,0,86.46,103c-.42-4.64-.5-6.56-.57-7.13s-.17-1.55.8-1.58a50.47,50.47,0,0,0,6-.33c2.16-.35,6.31-1.37,6.56-1.48"/><path class="cls-1" d="M56.76,102c.11,0,.59.68.79,1s4.26,5.85,10,7.06,7.66-.19,8.25-.89A29.17,29.17,0,0,0,78,104a3.15,3.15,0,0,1,2.39-2.23,12.17,12.17,0,0,1,2-.34,4.86,4.86,0,0,1,2.72.43c.63.53.69,4.89.42,7.29s-.89,7-1,7.3S82,118,77.09,118.13s-13.83-1.48-18.57-4a30.86,30.86,0,0,1-8.58-6.25c-1.88-1.88-1.49-1.7-1.34-2.16s.52-1.26.79-1.34,1.82-.18,3-.44,2.87-.61,3.47-1.2.78-.69.92-.69"/><path class="cls-1" d="M107.53,114.92c.49.28,1.92-.43,4.06-2.56a26.28,26.28,0,0,0,3.69-4.47,50.92,50.92,0,0,0,6-14.26,42.26,42.26,0,0,0,1.32-11.18c0-2.92-1.2-11.93-3.13-16.33s-3.69-9.34-7.63-12.9a48.68,48.68,0,0,0-19.65-11c-8.6-2.24-10.86-2-13.63-2.07a85.23,85.23,0,0,0-14.48,1.34,69.8,69.8,0,0,0-7.19,1.81c-1.24.3-13.51,5.76-18.78,14.67S31.73,77.7,32,83.3s1.67,21,9.55,29.79,17.48,12.7,33,13.52,23.5-5.44,23.5-5.44l1-7.61s-10.68,5.86-22.39,6.07S54.16,115.37,47.62,108,38.87,86.32,39.91,76.2s5.51-20.35,19.45-25.66,30.74-1,35.3.31,17.4,9.63,20,25.05-2.43,22.33-3.64,25.18-2.83,5.77-3.16,8.21-.81,5.35-.32,5.63"/><path class="cls-1" d="M49.92,92.25c1-.09,2.6.88,2.65,1.79A1.92,1.92,0,0,1,51,96.18c-1.17.19-3,.23-3.47-.89a2,2,0,0,1,.7-2.53,2.79,2.79,0,0,1,1.67-.51m-.48-.67c2.15,0,4.55,1.69,4.55,3.67a2.77,2.77,0,0,1-3.15,3.09c-1.94-.17-4.57-1.08-4.39-3.84A3.15,3.15,0,0,1,49.44,91.58ZM65.17,81.43a4,4,0,0,1,3.59-.66A2.36,2.36,0,0,1,68.35,82,8,8,0,0,1,67,83.59c-1.17,1.12-2.91,1.31-3.18,1S63.87,82.62,65.17,81.43ZM77.81,85c.3.25-.17,1.07-.36,1.19s-.8.67-1.3.24-.24-1,.48-1.35S77.55,84.73,77.81,85Zm-3.7-35.44C75,49.53,76.5,53,76.72,55a17,17,0,0,1-.62,8.91c-1.4,3.87-3.61,6.92-4.3,7l-1.4.21S67.57,68.78,64.49,69a12.92,12.92,0,0,0-8,3.54C53.82,74.9,52.63,77.2,52.32,79a12.94,12.94,0,0,0,.5,6.27c.71,1.56,1,1.32,1,1.32s.5.13.58-.05-1.48-4.83-.48-7.76,2.2-5.5,7.41-7.73c4.75-2,6.85,1,8.15,1.9s2.32,1.57,3.16,2.1,5.59,3.73,7.57,6,2.24,2.45,2,3.32-1.39,1.85-1.33,2.45,1.07,2.06.6,3a3.61,3.61,0,0,1-2.1,1.91c-1.29.64-1.79,1.49-1.75,1.69s.59.12,1.08,0a3.4,3.4,0,0,1,1.88-.47c.93.11,2.09.25,2.45,2.44s.37,3.25-.39,4.23S80.94,100.61,80,101s-2,.39-2.4.88a11.72,11.72,0,0,0-1.76,4.23,5.1,5.1,0,0,1-1.46,3,20.23,20.23,0,0,1-8-.52c-2.52-.93-3.68-1.87-5.87-4a28.84,28.84,0,0,1-3.13-3.5h-1a6.58,6.58,0,0,1-5.34,2c-3.05-.5-8.23-2.36-8.16-8.66S47.2,87.4,47.41,87s.3-1-.59-.94a7.14,7.14,0,0,0-3.08,1c-.84.56-2.4,1.8-2.53.64a5.88,5.88,0,0,1,3.2-5.75c3-1.47,3.67-1.17,3.62-2.28s-2.31-.63-3-.34a16,16,0,0,0-2.56,1.34c-.13.18-1.27,1-1.27-.22a6,6,0,0,1,3-5.29c2.51-1.49,5.17-.86,5.24-1.78s-1.05-1.23-2-1.12a13.91,13.91,0,0,0-4.2,1.41c-.5.44-1.38.51-1.14-.76a6.76,6.76,0,0,1,4.5-5.22c3.07-.91,5.55.74,5.82.18s.06-1.6-1.23-2.18a4.71,4.71,0,0,0-4-.26c-1.87.57-2.27.29-2-.43s1.28-4.38,5.71-4.4,5.54,4.07,6.58,3.79-.42-3.63-1.29-5-3.84-3.52-2.7-4.33,3.86-.5,5.58.59,1.73,1.32,2.18,2,2.14,4.45,2.52,4.31.52-2.38.2-4a18.26,18.26,0,0,0-3.09-5.76c-.65-.59-.5-1.12.66-1.18a7.86,7.86,0,0,1,6.15,2.53,9.91,9.91,0,0,1,1.63,6.65c-.19.56-.12,2,.66,1.14A14.49,14.49,0,0,0,72.78,55C73.2,52.26,73.28,49.57,74.11,49.55Z"/><path class="cls-2" d="M159.67,71.81c.29-1,.74-2.52,1.22-4.59.66,0,2.81.08,3.47.15.12,1.44.15,4,.15,5.33l-.52,1a17.24,17.24,0,0,1-9.31,2.55c-8.17,0-13.31-5-13.31-13.23s6.43-13.91,14.12-13.91a18.94,18.94,0,0,1,8.8,2.19l.55,1c-.33,1.93-.85,4.62-1.22,6.47-.7,0-2.44,0-3.21-.14a27.88,27.88,0,0,0-1-5,8.61,8.61,0,0,0-4.58-1.18,8.82,8.82,0,0,0-4.92,1.37A13.92,13.92,0,0,0,147,62.71c0,6.07,3.14,10.1,8.28,10.1A8.22,8.22,0,0,0,159.67,71.81Z"/><path class="cls-2" d="M167.8,63.49c0-8.54,6.14-14.35,13.61-14.35,7.28,0,12.35,5,12.35,12.8,0,8.39-5.73,14.34-13.24,14.34S167.8,71.33,167.8,63.49Zm18.34,7.84a15.59,15.59,0,0,0,2-8.28c0-6.44-2.33-10.58-7.47-10.58a7.76,7.76,0,0,0-4.73,1.44,15.11,15.11,0,0,0-2.56,8.91c0,6.29,2.89,10.21,7.84,10.21A7.07,7.07,0,0,0,186.14,71.33Z"/><path class="cls-2" d="M216.49,75.8l-3.25-4.62c-3.25-4.44-7.36-9.58-10.57-13.61,0,7.32.22,14.09.59,14.83.4.52,2.55.92,4.25,1.33l-.41,1.92H196.34l-.4-1.92,3.29-1c.15-1.22.26-4.55.26-9.94,0-6-.08-9.17-.45-9.73a13.88,13.88,0,0,0-3.18-1.37l.41-1.92c2.37,0,5.18-.07,7.39-.11,2.33,4.22,8.66,12,13.61,18.15-.07-7.76-.3-14.08-.67-14.78-.33-.48-2.47-1-3.88-1.34l.41-1.92h10.72l.41,1.92-3.33,1c-.33,2.74-.48,11.46-.48,22.7Z"/><path class="cls-2" d="M236.16,75.65H225.37L225,73.73l3.14-1.26c2.48-5.39,5.14-12.27,7.69-18.89L237,50a29.21,29.21,0,0,1,5.66-.62A32.66,32.66,0,0,0,244,53.62c2.59,6.58,5.47,14.27,7.47,19l3.4,1.15-.41,1.92H242.89l-.4-1.92,3.43-1c-.59-1.62-1.22-3.47-2-5.54l-9.83.18c-.63,1.78-1.18,3.51-1.7,5.14l4.18,1.22ZM243,64.45c-1.18-3.29-2.55-7-4-10.65-1.33,3.44-2.62,7.06-3.84,10.54Z"/><path class="cls-2" d="M261.08,72.73c.11-.7.26-4.77.26-6.8V59.5c0-2.22,0-5.92-.44-6.47s-1.93-1-3.11-1.34l.41-1.92h5.36c1.26,0,5.32-.22,7.06-.22,6,0,9.65,2.22,9.65,6.69,0,2.89-1.92,4.85-4.18,6,3,.78,5.55,2.77,5.55,6.32,0,4.88-4.48,7.4-9.69,7.4-2.33,0-5.62-.3-8.13-.3H258.2l-.41-1.92Zm5.4-11.5,5.8.23A5.46,5.46,0,0,0,275,56.65a4.91,4.91,0,0,0-1-3.29,6.51,6.51,0,0,0-3.92-1,18.87,18.87,0,0,0-2.92.26l-.33.11c-.11.71-.26,4.77-.26,6.81Zm.63,11.35a10.65,10.65,0,0,0,3.95.6,10.92,10.92,0,0,0,3.26-.45,5.12,5.12,0,0,0,2-4.18c0-2.55-1.63-4.25-4.92-4.25h-4.88v1.63c0,2.22,0,5.91.44,6.47A.83.83,0,0,0,267.11,72.58Z"/><path class="cls-2" d="M289.11,72.73c.11-.7.26-4.77.26-6.8V59.5c0-2.22,0-5.92-.45-6.47s-1.92-1-3.1-1.34l.4-1.92h11.43l.4,1.92-3.29,1c-.11.71-.26,4.77-.26,6.81v6.43c0,2.22,0,5.91.45,6.47s1.92,1,3.1,1.33l-.4,1.92H286.22l-.4-1.92Z"/><path class="cls-2" d="M301.31,63.49c0-8.54,6.13-14.35,13.6-14.35,7.29,0,12.35,5,12.35,12.8,0,8.39-5.73,14.34-13.24,14.34S301.31,71.33,301.31,63.49Zm18.33,7.84a15.5,15.5,0,0,0,2-8.28c0-6.44-2.33-10.58-7.47-10.58a7.78,7.78,0,0,0-4.73,1.44,15.11,15.11,0,0,0-2.55,8.91c0,6.29,2.88,10.21,7.84,10.21A7.06,7.06,0,0,0,319.64,71.33Z"/><path class="cls-3" d="M146.19,93a3.89,3.89,0,0,1-1.57-1.49,4.29,4.29,0,0,1,0-4.31,4,4,0,0,1,1.57-1.5,4.79,4.79,0,0,1,2.25-.53,4.63,4.63,0,0,1,1.9.37,3.7,3.7,0,0,1,1.43,1.06l-1.2,1.11a2.61,2.61,0,0,0-2-.95,2.69,2.69,0,0,0-1.34.33,2.39,2.39,0,0,0-.92.92,2.91,2.91,0,0,0,0,2.69,2.39,2.39,0,0,0,.92.92,2.69,2.69,0,0,0,1.34.33,2.62,2.62,0,0,0,2-1l1.2,1.11a3.72,3.72,0,0,1-1.43,1.07,4.72,4.72,0,0,1-1.91.37A4.64,4.64,0,0,1,146.19,93Z"/><path class="cls-3" d="M155.9,93a4,4,0,0,1-1.59-1.5,4.32,4.32,0,0,1,0-4.29,4,4,0,0,1,1.59-1.5,5,5,0,0,1,4.54,0,4.14,4.14,0,0,1,0,7.29,5,5,0,0,1-4.54,0Zm3.57-1.38a2.41,2.41,0,0,0,.9-.92,2.91,2.91,0,0,0,0-2.69,2.41,2.41,0,0,0-.9-.92,2.73,2.73,0,0,0-2.6,0,2.41,2.41,0,0,0-.9.92,2.91,2.91,0,0,0,0,2.69,2.41,2.41,0,0,0,.9.92,2.73,2.73,0,0,0,2.6,0Z"/><path class="cls-3" d="M172.77,93.43V88.57l-2.39,4h-.84l-2.37-3.9v4.75H165.4v-8.1H167l3,5,3-5h1.53l0,8.1Z"/><path class="cls-3" d="M177.84,85.33h1.87v8.1h-1.87Z"/><path class="cls-3" d="M183.82,93.31a4.2,4.2,0,0,1-1.44-.68l.64-1.41a4.36,4.36,0,0,0,1.24.62,4.7,4.7,0,0,0,1.43.23,2.26,2.26,0,0,0,1.18-.24.73.73,0,0,0,.38-.63.61.61,0,0,0-.22-.48,1.77,1.77,0,0,0-.58-.31c-.24-.07-.56-.16-1-.25a13.27,13.27,0,0,1-1.51-.44,2.39,2.39,0,0,1-1-.71,1.85,1.85,0,0,1-.43-1.29,2.29,2.29,0,0,1,.38-1.28,2.58,2.58,0,0,1,1.16-.91A4.76,4.76,0,0,1,186,85.2a6.37,6.37,0,0,1,1.51.18,4.49,4.49,0,0,1,1.3.53l-.58,1.43a4.48,4.48,0,0,0-2.25-.64,2.1,2.1,0,0,0-1.16.25.78.78,0,0,0-.37.68.64.64,0,0,0,.43.61,6.43,6.43,0,0,0,1.32.4,15.2,15.2,0,0,1,1.52.44,2.53,2.53,0,0,1,1,.7,1.85,1.85,0,0,1,.42,1.28,2.2,2.2,0,0,1-.38,1.27,2.68,2.68,0,0,1-1.17.91,4.76,4.76,0,0,1-1.88.33A6.79,6.79,0,0,1,183.82,93.31Z"/><path class="cls-3" d="M191.79,85.33h1.87v8.1h-1.87Z"/><path class="cls-3" d="M198.62,93a4,4,0,0,1-1.59-1.5,4.32,4.32,0,0,1,0-4.29,4,4,0,0,1,1.59-1.5,5,5,0,0,1,4.54,0,4.14,4.14,0,0,1,0,7.29,5,5,0,0,1-4.54,0Zm3.57-1.38a2.41,2.41,0,0,0,.9-.92,2.91,2.91,0,0,0,0-2.69,2.41,2.41,0,0,0-.9-.92,2.73,2.73,0,0,0-2.6,0,2.41,2.41,0,0,0-.9.92,2.91,2.91,0,0,0,0,2.69,2.41,2.41,0,0,0,.9.92,2.73,2.73,0,0,0,2.6,0ZM201.4,83h1.94l-2.09,1.67h-1.41Z"/><path class="cls-3" d="M215.55,85.33v8.1H214l-4-4.91v4.91h-1.85v-8.1h1.55l4,4.92V85.33Z"/><path class="cls-3" d="M231,85.33v8.1h-1.54l-4-4.91v4.91h-1.85v-8.1h1.55l4,4.92V85.33Z"/><path class="cls-3" d="M239.59,91.7h-3.76l-.72,1.73h-1.92l3.61-8.1h1.85l3.62,8.1h-2ZM239,90.27l-1.29-3.1-1.28,3.1Z"/><path class="cls-3" d="M246,93a3.91,3.91,0,0,1-1.58-1.49,4.36,4.36,0,0,1,0-4.31,4,4,0,0,1,1.58-1.5,4.73,4.73,0,0,1,2.25-.53,4.67,4.67,0,0,1,1.9.37,3.77,3.77,0,0,1,1.43,1.06l-1.21,1.11a2.57,2.57,0,0,0-2-.95,2.69,2.69,0,0,0-1.34.33,2.33,2.33,0,0,0-.92.92,2.91,2.91,0,0,0,0,2.69,2.33,2.33,0,0,0,.92.92,2.69,2.69,0,0,0,1.34.33,2.58,2.58,0,0,0,2-1l1.21,1.11a3.83,3.83,0,0,1-1.44,1.07,4.68,4.68,0,0,1-1.91.37A4.6,4.6,0,0,1,246,93Z"/><path class="cls-3" d="M254.26,85.33h1.87v8.1h-1.87Z"/><path class="cls-3" d="M261.09,93a4,4,0,0,1-1.59-1.5,4.32,4.32,0,0,1,0-4.29,4,4,0,0,1,1.59-1.5,5,5,0,0,1,4.54,0,4.14,4.14,0,0,1,0,7.29,5,5,0,0,1-4.54,0Zm3.57-1.38a2.41,2.41,0,0,0,.9-.92,2.91,2.91,0,0,0,0-2.69,2.41,2.41,0,0,0-.9-.92,2.73,2.73,0,0,0-2.6,0,2.41,2.41,0,0,0-.9.92,2.91,2.91,0,0,0,0,2.69,2.41,2.41,0,0,0,.9.92,2.73,2.73,0,0,0,2.6,0Z"/><path class="cls-3" d="M278,85.33v8.1h-1.54l-4-4.91v4.91h-1.85v-8.1h1.55l4,4.92V85.33Z"/><path class="cls-3" d="M286.66,91.7H282.9l-.72,1.73h-1.92l3.61-8.1h1.85l3.62,8.1h-2Zm-.59-1.43-1.29-3.1-1.28,3.1Z"/><path class="cls-3" d="M291.58,85.33h1.87v6.58h4.06v1.52h-5.93Z"/><path class="cls-3" d="M310,85.69a2.8,2.8,0,0,1,1.22,1,3,3,0,0,1,0,3.12,2.8,2.8,0,0,1-1.22,1,4.66,4.66,0,0,1-1.87.35h-1.63v2.23h-1.88v-8.1h3.51A4.49,4.49,0,0,1,310,85.69Zm-.69,3.62a1.45,1.45,0,0,0,0-2.08,1.93,1.93,0,0,0-1.29-.37h-1.52v2.81H308A2,2,0,0,0,309.3,89.31Z"/><path class="cls-3" d="M319.28,91.7h-3.76l-.71,1.73h-1.93l3.61-8.1h1.86l3.62,8.1h-2Zm-.59-1.43-1.28-3.1-1.29,3.1Z"/><path class="cls-3" d="M329.36,93.43l-1.56-2.25h-1.73v2.25H324.2v-8.1h3.5a4.49,4.49,0,0,1,1.87.36,2.9,2.9,0,0,1,1.22,4.14,2.7,2.7,0,0,1-1.24,1l1.82,2.6Zm-.48-6.2a1.92,1.92,0,0,0-1.28-.37h-1.53v2.83h1.53a1.92,1.92,0,0,0,1.28-.38,1.45,1.45,0,0,0,0-2.08Z"/><path class="cls-3" d="M339.42,91.7h-3.76L335,93.43H333l3.6-8.1h1.86l3.62,8.1h-2Zm-.59-1.43-1.28-3.1-1.29,3.1Z"/><path class="cls-3" d="M150.82,104.93v1.5h-6.27v-8.1h6.12v1.51h-4.25v1.76h3.76v1.46h-3.76v1.87Z"/><path class="cls-3" d="M153.7,98.33h1.88v6.58h4.06v1.52H153.7Z"/><path class="cls-3" d="M168.38,106a3.89,3.89,0,0,1-1.57-1.49,4.29,4.29,0,0,1,0-4.31,4,4,0,0,1,1.57-1.5,4.79,4.79,0,0,1,2.25-.53,4.63,4.63,0,0,1,1.9.37A3.7,3.7,0,0,1,174,99.63l-1.2,1.11a2.61,2.61,0,0,0-2-.95,2.69,2.69,0,0,0-1.34.33,2.39,2.39,0,0,0-.92.92,2.91,2.91,0,0,0,0,2.69,2.39,2.39,0,0,0,.92.92,2.69,2.69,0,0,0,1.34.33,2.62,2.62,0,0,0,2-1l1.2,1.11a3.72,3.72,0,0,1-1.43,1.07,4.72,4.72,0,0,1-1.91.37A4.64,4.64,0,0,1,168.38,106Z"/><path class="cls-3" d="M178.08,106a4,4,0,0,1-1.58-1.5,4.32,4.32,0,0,1,0-4.29,4,4,0,0,1,1.58-1.5,4.8,4.8,0,0,1,2.28-.54,4.69,4.69,0,0,1,2.26.54,4.13,4.13,0,0,1,0,7.29,4.69,4.69,0,0,1-2.26.54A4.8,4.8,0,0,1,178.08,106Zm3.57-1.38a2.37,2.37,0,0,0,.91-.92,2.91,2.91,0,0,0,0-2.69,2.37,2.37,0,0,0-.91-.92,2.53,2.53,0,0,0-1.29-.33,2.59,2.59,0,0,0-1.3.33,2.44,2.44,0,0,0-.91.92,2.91,2.91,0,0,0,0,2.69,2.44,2.44,0,0,0,.91.92,2.59,2.59,0,0,0,1.3.33A2.53,2.53,0,0,0,181.65,104.65Z"/><path class="cls-3" d="M195,98.33v8.1h-1.54l-4-4.91v4.91h-1.85v-8.1h1.55l4,4.92V98.33Z"/><path class="cls-3" d="M200,106a4.14,4.14,0,0,1,0-7.29,4.76,4.76,0,0,1,2.27-.54,4.7,4.7,0,0,1,2.27.54,4.13,4.13,0,0,1,0,7.29,4.7,4.7,0,0,1-2.27.54A4.76,4.76,0,0,1,200,106Zm3.57-1.38a2.37,2.37,0,0,0,.91-.92,2.91,2.91,0,0,0,0-2.69,2.37,2.37,0,0,0-.91-.92,2.71,2.71,0,0,0-2.59,0,2.37,2.37,0,0,0-.91.92,2.91,2.91,0,0,0,0,2.69,2.37,2.37,0,0,0,.91.92,2.71,2.71,0,0,0,2.59,0Z"/><path class="cls-3" d="M211.11,106a4,4,0,0,1-1.57-1.49,4.36,4.36,0,0,1,0-4.31,4,4,0,0,1,1.57-1.5,4.79,4.79,0,0,1,2.25-.53,4.72,4.72,0,0,1,1.91.37,3.74,3.74,0,0,1,1.42,1.06l-1.2,1.11a2.59,2.59,0,0,0-2-.95,2.72,2.72,0,0,0-1.34.33,2.39,2.39,0,0,0-.92.92,2.91,2.91,0,0,0,0,2.69,2.39,2.39,0,0,0,.92.92,2.72,2.72,0,0,0,1.34.33,2.6,2.6,0,0,0,2-1l1.2,1.11a3.72,3.72,0,0,1-1.43,1.07,4.72,4.72,0,0,1-1.91.37A4.67,4.67,0,0,1,211.11,106Z"/><path class="cls-3" d="M219.34,98.33h1.88v8.1h-1.88Z"/><path class="cls-3" d="M231.89,106.43v-4.86l-2.38,4h-.84l-2.38-3.9v4.75h-1.75v-8.1h1.55l3,5,3-5h1.54l0,8.1Z"/><path class="cls-3" d="M237,98.33h1.88v8.1H237Z"/><path class="cls-3" d="M248.41,104.93v1.5h-6.27v-8.1h6.12v1.51H244v1.76h3.76v1.46H244v1.87Z"/><path class="cls-3" d="M258.72,98.33v8.1h-1.54l-4-4.91v4.91h-1.86v-8.1h1.56l4,4.92V98.33Z"/><path class="cls-3" d="M263.71,99.86h-2.59V98.33h7.05v1.53h-2.59v6.57h-1.87Z"/><path class="cls-3" d="M272.1,106a4.14,4.14,0,0,1,0-7.29,4.76,4.76,0,0,1,2.27-.54,4.7,4.7,0,0,1,2.27.54,4.13,4.13,0,0,1,0,7.29,4.7,4.7,0,0,1-2.27.54A4.76,4.76,0,0,1,272.1,106Zm3.57-1.38a2.37,2.37,0,0,0,.91-.92,2.91,2.91,0,0,0,0-2.69,2.37,2.37,0,0,0-.91-.92,2.59,2.59,0,0,0-1.3-.33,2.55,2.55,0,0,0-1.29.33,2.37,2.37,0,0,0-.91.92,2.91,2.91,0,0,0,0,2.69,2.37,2.37,0,0,0,.91.92,2.55,2.55,0,0,0,1.29.33A2.59,2.59,0,0,0,275.67,104.65Z"/><path class="cls-3" d="M290.15,103.56v2.87h-1.87v-2.89l-3.14-5.21h2l2.17,3.6,2.16-3.6h1.84Z"/><path class="cls-3" d="M301,105.61a3.7,3.7,0,0,1-1-2.74V98.33h1.87v4.47c0,1.45.6,2.18,1.81,2.18a1.7,1.7,0,0,0,1.34-.53,2.45,2.45,0,0,0,.46-1.65V98.33h1.85v4.54a3.83,3.83,0,0,1-6.37,2.74Z"/><path class="cls-3" d="M311.45,106.31a4.2,4.2,0,0,1-1.44-.68l.63-1.41a4.36,4.36,0,0,0,1.24.62,4.8,4.8,0,0,0,1.43.23,2.24,2.24,0,0,0,1.18-.24.72.72,0,0,0,.39-.63.62.62,0,0,0-.23-.48,1.68,1.68,0,0,0-.58-.31c-.23-.07-.55-.16-.95-.25a12.92,12.92,0,0,1-1.52-.44,2.45,2.45,0,0,1-1-.71,1.89,1.89,0,0,1-.42-1.29,2.21,2.21,0,0,1,.38-1.28,2.61,2.61,0,0,1,1.15-.91,4.76,4.76,0,0,1,1.88-.33,6.45,6.45,0,0,1,1.52.18,4.42,4.42,0,0,1,1.29.53l-.58,1.43a4.45,4.45,0,0,0-2.24-.64,2.08,2.08,0,0,0-1.16.25.79.79,0,0,0-.38.68.64.64,0,0,0,.43.61,6.36,6.36,0,0,0,1.33.4,14.9,14.9,0,0,1,1.51.44,2.56,2.56,0,0,1,1,.7,1.85,1.85,0,0,1,.42,1.28,2.21,2.21,0,0,1-.39,1.27,2.7,2.7,0,0,1-1.16.91,4.84,4.84,0,0,1-1.89.33A6.67,6.67,0,0,1,311.45,106.31Z"/><path class="cls-3" d="M321.06,106a4,4,0,0,1-1.59-1.5,4.32,4.32,0,0,1,0-4.29,4,4,0,0,1,1.59-1.5,5,5,0,0,1,4.54,0,4.14,4.14,0,0,1,0,7.29,5,5,0,0,1-4.54,0Zm3.57-1.38a2.44,2.44,0,0,0,.91-.92,2.91,2.91,0,0,0,0-2.69,2.44,2.44,0,0,0-.91-.92,2.59,2.59,0,0,0-1.3-.33,2.53,2.53,0,0,0-1.29.33,2.37,2.37,0,0,0-.91.92,2.91,2.91,0,0,0,0,2.69,2.37,2.37,0,0,0,.91.92,2.53,2.53,0,0,0,1.29.33A2.59,2.59,0,0,0,324.63,104.65Z"/><path class="cls-3" d="M144.55,111.33h3.68a5.09,5.09,0,0,1,2.33.51,3.76,3.76,0,0,1,1.58,1.42,4,4,0,0,1,.56,2.12,4,4,0,0,1-.56,2.13,3.82,3.82,0,0,1-1.58,1.42,5.09,5.09,0,0,1-2.33.5h-3.68Zm3.59,6.56a2.73,2.73,0,0,0,1.94-.67,2.7,2.7,0,0,0,0-3.67,2.73,2.73,0,0,0-1.94-.68h-1.71v5Z"/><path class="cls-3" d="M161.77,117.93v1.5H155.5v-8.1h6.12v1.51h-4.26v1.76h3.76v1.46h-3.76v1.87Z"/><path class="cls-3" d="M169.31,111.33h1.87v6.58h4.06v1.52h-5.93Z"/><path class="cls-3" d="M183.09,117.7h-3.76l-.72,1.73h-1.92l3.61-8.1h1.85l3.62,8.1h-2Zm-.59-1.43-1.29-3.1-1.28,3.1Z"/><path class="cls-3" d="M199.7,116a2,2,0,0,1,.39,1.26,1.87,1.87,0,0,1-.82,1.64,4.28,4.28,0,0,1-2.42.57h-4.18v-8.1h4a3.88,3.88,0,0,1,2.28.57,1.81,1.81,0,0,1,.79,1.54,1.93,1.93,0,0,1-1.08,1.78A2.09,2.09,0,0,1,199.7,116Zm-5.17-3.21v1.9h1.86a1.9,1.9,0,0,0,1.05-.24.89.89,0,0,0,0-1.43,2,2,0,0,0-1.05-.23Zm3.3,5a.83.83,0,0,0,.38-.75c0-.67-.5-1-1.5-1h-2.18v2h2.18A2.09,2.09,0,0,0,197.83,117.78Z"/><path class="cls-3" d="M202.9,111.33h1.88v8.1H202.9Z"/><path class="cls-3" d="M209.73,119a4,4,0,0,1-1.58-1.5,4.32,4.32,0,0,1,0-4.29,4,4,0,0,1,1.58-1.5,5.06,5.06,0,0,1,4.55,0,4.07,4.07,0,0,1,1.58,1.5,4.26,4.26,0,0,1,0,4.29,4.07,4.07,0,0,1-1.58,1.5,5.06,5.06,0,0,1-4.55,0Zm3.57-1.38a2.37,2.37,0,0,0,.91-.92,2.91,2.91,0,0,0,0-2.69,2.37,2.37,0,0,0-.91-.92,2.53,2.53,0,0,0-1.29-.33,2.59,2.59,0,0,0-1.3.33,2.44,2.44,0,0,0-.91.92,2.91,2.91,0,0,0,0,2.69,2.44,2.44,0,0,0,.91.92,2.59,2.59,0,0,0,1.3.33A2.53,2.53,0,0,0,213.3,117.65Z"/><path class="cls-3" d="M219.24,111.33h3.68a5.12,5.12,0,0,1,2.33.51,3.73,3.73,0,0,1,1.57,1.42,3.88,3.88,0,0,1,.56,2.12,3.94,3.94,0,0,1-.56,2.13,3.8,3.8,0,0,1-1.57,1.42,5.12,5.12,0,0,1-2.33.5h-3.68Zm3.59,6.56a2.72,2.72,0,0,0,1.93-.67,2.67,2.67,0,0,0,0-3.67,2.72,2.72,0,0,0-1.93-.68h-1.72v5Z"/><path class="cls-3" d="M230.18,111.33h1.88v8.1h-1.88Z"/><path class="cls-3" d="M243.1,111.33l-3.5,8.1h-1.85l-3.5-8.1h2l2.46,5.79,2.5-5.79Z"/><path class="cls-3" d="M251.43,117.93v1.5h-6.27v-8.1h6.12v1.51H247v1.76h3.76v1.46H247v1.87Z"/><path class="cls-3" d="M259.47,119.43l-1.56-2.25h-1.72v2.25h-1.88v-8.1h3.51a4.49,4.49,0,0,1,1.87.36,2.8,2.8,0,0,1,1.22,1,2.85,2.85,0,0,1,.43,1.56,2.77,2.77,0,0,1-.44,1.56,2.72,2.72,0,0,1-1.23,1l1.82,2.6Zm-.47-6.2a1.93,1.93,0,0,0-1.29-.37h-1.52v2.83h1.52a1.93,1.93,0,0,0,1.29-.38,1.45,1.45,0,0,0,0-2.08Z"/><path class="cls-3" d="M265,119.31a4.2,4.2,0,0,1-1.44-.68l.63-1.41a4.36,4.36,0,0,0,1.24.62,4.81,4.81,0,0,0,1.44.23,2.29,2.29,0,0,0,1.18-.24.73.73,0,0,0,.38-.63.62.62,0,0,0-.23-.48,1.72,1.72,0,0,0-.57-.31c-.24-.07-.56-.16-1-.25a13.52,13.52,0,0,1-1.52-.44,2.45,2.45,0,0,1-1-.71,1.89,1.89,0,0,1-.42-1.29,2.29,2.29,0,0,1,.38-1.28,2.67,2.67,0,0,1,1.15-.91,4.79,4.79,0,0,1,1.88-.33,6.39,6.39,0,0,1,1.52.18,4.42,4.42,0,0,1,1.29.53l-.57,1.43a4.48,4.48,0,0,0-2.25-.64A2.1,2.1,0,0,0,266,113a.79.79,0,0,0-.38.68.65.65,0,0,0,.44.61,6.43,6.43,0,0,0,1.32.4c.62.15,1.12.3,1.52.44a2.53,2.53,0,0,1,1,.7,1.85,1.85,0,0,1,.42,1.28,2.21,2.21,0,0,1-.39,1.27,2.59,2.59,0,0,1-1.16.91,4.76,4.76,0,0,1-1.88.33A6.79,6.79,0,0,1,265,119.31Z"/><path class="cls-3" d="M273,111.33h1.88v8.1H273Z"/><path class="cls-3" d="M278.16,111.33h3.67a5.16,5.16,0,0,1,2.34.51,3.73,3.73,0,0,1,1.57,1.42,4,4,0,0,1,.56,2.12,4,4,0,0,1-.56,2.13,3.8,3.8,0,0,1-1.57,1.42,5.16,5.16,0,0,1-2.34.5h-3.67Zm3.58,6.56a2.73,2.73,0,0,0,1.94-.67,2.7,2.7,0,0,0,0-3.67,2.73,2.73,0,0,0-1.94-.68H280v5Z"/><path class="cls-3" d="M294.32,117.7h-3.76l-.72,1.73h-1.92l3.61-8.1h1.85l3.62,8.1h-2Zm-.59-1.43-1.29-3.1-1.28,3.1Z"/><path class="cls-3" d="M299.23,111.33h3.68a5.09,5.09,0,0,1,2.33.51,3.76,3.76,0,0,1,1.58,1.42,4,4,0,0,1,.56,2.12,4,4,0,0,1-.56,2.13,3.82,3.82,0,0,1-1.58,1.42,5.09,5.09,0,0,1-2.33.5h-3.68Zm3.59,6.56a2.73,2.73,0,0,0,1.94-.67,2.7,2.7,0,0,0,0-3.67,2.73,2.73,0,0,0-1.94-.68h-1.71v5Z"/><rect class="cls-4" width="377.2" height="170.21"/></g></g></svg>