<?xml version="1.0" encoding="utf-8"?>
<!-- Generator: Adobe Illustrator 22.0.1, SVG Export Plug-In . SVG Version: 6.00 Build 0)  -->
<svg version="1.1" id="Layer_1" xmlns="http://www.w3.org/2000/svg" xmlns:xlink="http://www.w3.org/1999/xlink" x="0px" y="0px"
	 viewBox="0 0 48 24" style="enable-background:new 0 0 48 24;" xml:space="preserve">
<style type="text/css">
	.st0{fill:#FFFFFF;}
	.st1{fill:url(#SVGID_1_);}
	.st2{fill:url(#SVGID_2_);}
	.st3{fill:url(#SVGID_3_);}
</style>
<g>
	<path class="st0" d="M3.3,17.8c-0.5,0-1.1-0.1-1.7-0.2C0.9,17.4,0.4,17.2,0,17l0.9-2c0.3,0.2,0.6,0.3,1.1,0.4
		c0.5,0.1,0.9,0.2,1.2,0.2c0.4,0,0.7-0.1,0.9-0.2c0.2-0.2,0.3-0.3,0.3-0.5c0-0.1-0.1-0.2-0.3-0.4c-0.2-0.1-0.4-0.3-0.8-0.5L3,13.7
		c-0.7-0.4-1.2-0.7-1.5-1c-0.4-0.3-0.7-0.6-1-1C0.1,11.3,0,10.9,0,10.4c0-0.5,0.2-1,0.5-1.5c0.3-0.4,0.7-0.8,1.3-1
		c0.6-0.2,1.2-0.4,1.9-0.4c0.5,0,1,0.1,1.5,0.2c0.5,0.1,1,0.3,1.4,0.6l-0.8,1.8C5.3,9.9,4.9,9.8,4.6,9.8C4.3,9.7,4,9.7,3.7,9.7
		C3.4,9.7,3.2,9.8,3,9.9c-0.2,0.1-0.3,0.3-0.3,0.5c0,0.1,0.1,0.3,0.2,0.4c0.1,0.1,0.4,0.3,0.7,0.4l0.5,0.3c0.6,0.3,1.1,0.7,1.5,1
		c0.4,0.3,0.8,0.6,1,1c0.3,0.4,0.4,0.9,0.4,1.4c0,0.6-0.2,1.1-0.5,1.5c-0.3,0.4-0.8,0.8-1.4,1S4.1,17.8,3.3,17.8z"/>
	<path class="st0" d="M11.3,7.7v9.8H8.6V7.7H11.3z"/>
	<g>
		<linearGradient id="SVGID_1_" gradientUnits="userSpaceOnUse" x1="39.4031" y1="7.3659" x2="39.4031" y2="13.4962">
			<stop  offset="0" style="stop-color:#FFFFFF"/>
			<stop  offset="1" style="stop-color:#FFFFFF;stop-opacity:0.2"/>
		</linearGradient>
		<path class="st1" d="M36.1,9.1C37,9,37.9,8.9,38.8,8.9c0.1,0,0.2,0,0.3,0c1.6,0,3,0.2,4.3,0.6c-0.2-0.4-0.5-0.7-0.8-1
			c-0.8-0.6-1.7-0.8-2.9-0.8h-4.1v1.5C35.7,9.2,35.9,9.1,36.1,9.1z"/>
		<linearGradient id="SVGID_2_" gradientUnits="userSpaceOnUse" x1="28.8979" y1="7.3659" x2="28.8979" y2="13.4962">
			<stop  offset="0" style="stop-color:#FFFFFF"/>
			<stop  offset="1" style="stop-color:#FFFFFF;stop-opacity:0.2"/>
		</linearGradient>
		<path class="st2" d="M27.9,11.2c0.2-0.1,0.5-0.1,0.7-0.2c0.9-0.3,1.8-0.6,2.8-0.8l-0.9-2.4h-2.6l-1.5,3.9
			C26.9,11.5,27.4,11.3,27.9,11.2z"/>
		<path class="st0" d="M48,13.6c-0.3-0.3-0.6-0.7-0.9-1c-0.1-0.1-0.2-0.2-0.3-0.3c0,0,0,0-0.1-0.1c0,0-0.1-0.1-0.1-0.1
			c0,0-0.1,0-0.1-0.1c-0.1,0-0.1-0.1-0.2-0.1c-0.1,0-0.1-0.1-0.2-0.1c0,0-0.1-0.1-0.1-0.1c0,0-0.1-0.1-0.1-0.1c0,0-0.1-0.1-0.1-0.1
			c0,0-0.1-0.1-0.1-0.1c0,0-0.1,0-0.1-0.1c-0.1,0-0.1-0.1-0.2-0.1c0,0-0.1,0-0.1-0.1c-0.1,0-0.1-0.1-0.2-0.1c0,0-0.1,0-0.1-0.1
			c-0.1,0-0.1-0.1-0.2-0.1c0,0,0,0-0.1,0c-0.1,0-0.2-0.1-0.3-0.1c0,0-0.1,0-0.1,0c-0.1,0-0.1-0.1-0.2-0.1c0,0-0.1,0-0.1,0
			c-0.1,0-0.2-0.1-0.3-0.1c0,0,0,0,0,0c-0.1,0-0.2-0.1-0.3-0.1c0,0,0,0,0,0c0,0,0,0,0,0c-1.4-0.6-3-0.8-4.6-0.8c-0.1,0-0.2,0-0.3,0
			c-0.9,0-1.7,0.1-2.6,0.2c-0.2,0-0.4,0.1-0.6,0.1c0,0-0.1,0-0.1,0v0c-0.2,0-0.4,0.1-0.5,0.1c0,0,0,0,0,0c-0.1,0-0.2,0-0.4,0.1
			c-0.1,0-0.2,0-0.3,0.1c-0.1,0-0.2,0-0.2,0c-0.1,0-0.3,0.1-0.4,0.1c-0.2,0-0.4,0.1-0.6,0.1c-0.1,0-0.2,0-0.2,0.1
			c-0.1,0-0.2,0-0.3,0.1c-0.1,0-0.2,0.1-0.3,0.1c-0.1,0-0.1,0-0.2,0c-0.1,0-0.3,0.1-0.4,0.1c-0.8,0.2-1.7,0.5-2.5,0.7
			c-0.1,0-0.2,0.1-0.3,0.1v0c0,0,0,0,0,0c-0.9,0.3-1.8,0.6-2.7,0.8l0,0c0,0,0,0,0,0c-0.2,0-0.3,0.1-0.5,0.1c0,0-0.1,0-0.1,0
			c-0.1,0-0.2,0.1-0.4,0.1c-0.1,0-0.2,0-0.3,0.1c-0.1,0-0.2,0-0.3,0.1c-0.2,0-0.4,0.1-0.5,0.1c-0.4,0.1-0.8,0.2-1.2,0.3c0,0,0,0,0,0
			l0,0c-0.9,0.2-1.8,0.4-2.6,0.5v0c0,0,0,0,0,0c-0.3,0-0.5,0.1-0.8,0.1c0,0,0,0,0,0l0,0c-0.1,0-0.1,0-0.2,0c-0.4,0-0.7,0-1.1,0
			c-0.4,0-0.7,0-1.1,0l0,0c0,0,0,0,0,0c0,0-0.1,0-0.1,0c0,0-0.1,0-0.1,0c0,0-0.1,0-0.1,0c0,0-0.1,0-0.1,0c0,0-0.1,0-0.1,0
			c0,0-0.1,0-0.1,0c0,0-0.1,0-0.1,0c0,0,0,0,0,0v0c-0.6-0.1-1.2-0.2-1.7-0.4c-0.3-0.1-0.6-0.2-0.9-0.3c-0.1,0-0.1-0.1-0.2-0.1
			c0,0-0.1,0-0.1,0c-0.1,0-0.1,0-0.2-0.1c0,0-0.1,0-0.1-0.1c-0.1,0-0.1-0.1-0.2-0.1c0,0,0,0-0.1,0c-0.1,0-0.1-0.1-0.2-0.1
			c0,0,0,0-0.1,0c-0.1,0-0.2-0.1-0.2-0.1c0,0-0.1-0.1-0.1-0.1c0,0,0,0,0,0l0,0c-0.3-0.2-0.6-0.4-0.9-0.6c-0.2-0.1-0.3-0.2-0.5-0.4
			c-0.2-0.1-0.3-0.3-0.5-0.4l0,0c0,0-0.1,0-0.1,0c0,0,0,0.1,0,0.1c0.9,1.2,2.1,2.1,3.5,2.9v3.6h2.6v-2.6c0.1,0,0.3,0.1,0.4,0.1
			c0.9,0.2,1.7,0.2,2.6,0.2c0.3,0,0.6,0,0.9,0v2.3h2.6V15c0.5-0.1,1-0.2,1.5-0.3c0.3-0.1,0.6-0.1,0.9-0.2l-1.2,3.1h2.6l0.7-1.9h3.4
			l0.7,2.1l2.6-0.3l-1.9-5c0.6-0.2,1.2-0.3,1.8-0.5c0.5-0.1,0.9-0.2,1.4-0.4v6h2.6v-3.1h1.8l1.6,3.1h3.1l-2.2-3.9
			c0.4-0.3,0.7-0.6,1-1.1c0.2-0.4,0.3-0.8,0.3-1.2c0.8,0.2,1.5,0.5,2.2,0.9c0.2,0.1,0.4,0.2,0.5,0.3c0.2,0.1,0.3,0.2,0.5,0.3
			c0.2,0.1,0.3,0.2,0.5,0.4C47.6,13.4,47.7,13.6,48,13.6L48,13.6C47.9,13.7,48,13.7,48,13.6C48,13.7,48,13.6,48,13.6z M28.5,13.6
			c0.2-0.1,0.5-0.2,0.7-0.2c0.2-0.1,0.4-0.1,0.7-0.2l0.2,0.4H28.5z M40.6,12c-0.3,0.2-0.6,0.4-1,0.4h-1.4v-1.3
			c0.2,0,0.5-0.1,0.7-0.1c0.7-0.1,1.4-0.1,2.1-0.1c0,0,0,0.1,0,0.1C40.9,11.5,40.8,11.8,40.6,12z"/>
		<linearGradient id="SVGID_3_" gradientUnits="userSpaceOnUse" x1="18.228" y1="7.3659" x2="18.228" y2="13.4962">
			<stop  offset="0" style="stop-color:#FFFFFF"/>
			<stop  offset="1" style="stop-color:#FFFFFF;stop-opacity:0.2"/>
		</linearGradient>
		<path class="st3" d="M14.7,12.7c0.5,0.2,1,0.3,1.5,0.3v-0.2l0.2,0.2c0.6,0.1,1.1,0.1,1.8,0.1c0.3,0,0.7,0,1,0c0.3,0,0.6,0,0.9-0.1
			l0.2-0.2V13c0.8-0.1,1.7-0.3,2.6-0.5V7.7h-1.8l-2.7,3.8l-3-3.8h-1.8v4.5C14,12.4,14.3,12.5,14.7,12.7z"/>
	</g>
</g>
</svg>
