<?xml version="1.0" encoding="utf-8"?>
<!-- Generator: Adobe Illustrator 22.0.1, SVG Export Plug-In . SVG Version: 6.00 Build 0)  -->
<svg version="1.1" id="Layer_1" xmlns="http://www.w3.org/2000/svg" xmlns:xlink="http://www.w3.org/1999/xlink" x="0px" y="0px"
	 viewBox="0 0 48 24" style="enable-background:new 0 0 48 24;" xml:space="preserve">
<style type="text/css">
	.st0{fill:#FFFFFF;}
</style>
<g>
	<g>
		<path class="st0" d="M5.3,4.4h0.9v0.1c-0.3,0-0.4,0.2-0.4,0.5c0,0.1,0,0.1,0,0.3l0.6,4.2c0,0.2,0.1,0.3,0.1,0.4
			c0,0.1,0.1,0.1,0.3,0.1v0.1H5.5V9.9c0.2,0,0.2-0.1,0.2-0.2c0,0,0-0.1,0-0.2L5.2,5.3l-2,4.6h0l-2-4.6L0.6,9.4c0,0.1,0,0.1,0,0.2
			c0,0.1,0.1,0.2,0.3,0.2v0.1H0V9.9c0.1,0,0.2,0,0.2,0c0,0,0.1-0.1,0.1-0.1c0-0.1,0-0.1,0-0.2L1,5C0.9,4.7,0.8,4.6,0.7,4.5
			C0.6,4.5,0.5,4.4,0.4,4.4V4.4h1l1.9,4.5L5.3,4.4z"/>
		<path class="st0" d="M10.1,4.3c0.8,0,1.4,0.2,1.9,0.7c0.5,0.5,0.7,1.1,0.7,1.8c0,0.9-0.3,1.7-0.9,2.3C11.3,9.7,10.6,10,9.6,10
			c-0.8,0-1.4-0.3-1.9-0.8C7.3,8.7,7,8.1,7,7.4C7,7,7.2,6.5,7.4,6C7.6,5.5,8,5.1,8.4,4.8C8.9,4.5,9.5,4.3,10.1,4.3z M10.1,9.7
			c0.4,0,0.8-0.1,1.1-0.3c0.4-0.2,0.7-0.5,0.9-0.8c0.2-0.4,0.3-0.7,0.3-1.1c0-0.5-0.1-1-0.4-1.5c-0.3-0.4-0.7-0.8-1.1-1
			C10.4,4.7,10,4.6,9.6,4.6c-0.5,0-1,0.2-1.5,0.6C7.7,5.6,7.5,6.1,7.5,6.8c0,0.8,0.3,1.5,0.8,2.1C8.8,9.4,9.4,9.7,10.1,9.7z"/>
		<path class="st0" d="M17.9,4.4h1.1v0.1c-0.2,0-0.3,0-0.3,0.1c-0.1,0.1-0.1,0.2-0.1,0.4v5l-4.4-4.7v4.1c0,0.1,0,0.2,0,0.3
			c0,0.1,0,0.1,0.1,0.1c0,0,0.1,0,0.3,0.1v0.1h-1.1V9.9c0.2,0,0.3,0,0.4-0.1c0-0.1,0.1-0.2,0.1-0.5V5.5c0-0.3,0-0.6-0.1-0.8
			c-0.1-0.2-0.3-0.3-0.6-0.3V4.4h1l4.1,4.4V4.9c0-0.2,0-0.3-0.1-0.4C18.1,4.5,18,4.4,17.9,4.4L17.9,4.4z"/>
		<path class="st0" d="M20.9,4.4L20.9,4.4c-0.1,0-0.2,0.1-0.2,0.1c-0.1,0-0.1,0.1-0.2,0.1c0,0.1,0,0.2,0,0.4v4.2c0,0.2,0,0.4,0,0.4
			c0,0.1,0.1,0.1,0.1,0.1c0.1,0,0.1,0.1,0.3,0.1v0.1h-1.5V9.9c0.2,0,0.3,0,0.3-0.1c0-0.1,0.1-0.2,0.1-0.5V5.1c0-0.3,0-0.4-0.1-0.5
			c-0.1-0.1-0.2-0.1-0.3-0.1V4.4H20.9z"/>
		<path class="st0" d="M25.8,4.2l-0.3,0.7h-0.1c0,0,0-0.1,0-0.2c0-0.1,0-0.1-0.1-0.1c0,0-0.1,0-0.2,0h-1.4v4.7c0,0.2,0,0.3,0,0.4
			c0,0.1,0.1,0.1,0.1,0.1c0.1,0,0.1,0,0.3,0v0.1h-1.5V9.9c0.2,0,0.3,0,0.4-0.1c0-0.1,0.1-0.2,0.1-0.4V4.6h-1.4c-0.1,0-0.2,0-0.3,0
			c0,0-0.1,0.1-0.1,0.1c0,0,0,0.1,0,0.1h-0.1l-0.3-0.7h0.1c0,0.1,0.1,0.1,0.1,0.2c0,0,0.1,0,0.3,0h3.7c0.1,0,0.2,0,0.3,0
			C25.7,4.3,25.7,4.3,25.8,4.2L25.8,4.2z"/>
		<path class="st0" d="M28.9,4.3c0.8,0,1.4,0.2,1.9,0.7c0.5,0.5,0.7,1.1,0.7,1.8c0,0.9-0.3,1.7-0.9,2.3c-0.6,0.6-1.3,0.9-2.3,0.9
			c-0.8,0-1.4-0.3-1.9-0.8c-0.5-0.5-0.7-1.1-0.7-1.8c0-0.5,0.1-1,0.4-1.5c0.2-0.5,0.6-0.9,1.1-1.2C27.7,4.5,28.2,4.3,28.9,4.3z
			 M28.8,9.7c0.4,0,0.8-0.1,1.1-0.3c0.4-0.2,0.7-0.5,0.9-0.8c0.2-0.4,0.3-0.7,0.3-1.1c0-0.5-0.1-1-0.4-1.5c-0.3-0.4-0.7-0.8-1.1-1
			c-0.5-0.2-0.9-0.4-1.3-0.4c-0.5,0-1,0.2-1.5,0.6c-0.4,0.4-0.7,0.9-0.7,1.5c0,0.8,0.3,1.5,0.8,2.1C27.6,9.4,28.2,9.7,28.8,9.7z"/>
		<path class="st0" d="M32.1,4.4L32.1,4.4l1.6-0.1c0.4,0,0.7,0,0.9,0c0.2,0,0.4,0.1,0.5,0.2c0.2,0.1,0.3,0.2,0.4,0.4
			c0.1,0.2,0.1,0.4,0.1,0.6c0,0.3-0.1,0.5-0.3,0.8c-0.2,0.3-0.4,0.5-0.7,0.6L35,7.7c0.1,0.1,0.3,0.5,0.7,1c0.4,0.5,0.6,0.8,0.8,0.9
			c0.2,0.1,0.4,0.2,0.6,0.2c0.2,0,0.4-0.1,0.6-0.2l0,0.1c-0.3,0.2-0.7,0.4-1.2,0.4c-0.3,0-0.6-0.1-0.8-0.3c-0.2-0.2-0.6-0.7-1.2-1.6
			c0,0,0,0,0,0L34,7.3l-0.5,0h-0.4v2.1c0,0.2,0,0.3,0.1,0.4c0,0.1,0.2,0.1,0.3,0.1v0.1h-1.4V9.9c0.2,0,0.3,0,0.3-0.1
			c0-0.1,0.1-0.2,0.1-0.4V4.9c0-0.1,0-0.3-0.1-0.4C32.4,4.5,32.3,4.4,32.1,4.4z M33.1,4.5v2.6h0.6c0.5,0,0.8-0.1,1-0.3
			C34.9,6.6,35,6.3,35,6c0-0.3-0.1-0.7-0.3-1c-0.2-0.3-0.6-0.5-1.1-0.5H33.1z"/>
		<path class="st0" d="M38.1,4.5L38.1,4.5l3.5-0.1v0.8h-0.1c-0.1-0.3-0.1-0.4-0.2-0.5c-0.1-0.1-0.2-0.1-0.4-0.1h-1.8v2.5h1.7
			c0.2,0,0.3,0,0.3,0c0,0,0.1-0.1,0.1-0.1h0.1v0.5h-0.1c0-0.1,0-0.1-0.1-0.1c0,0-0.1,0-0.3,0h-1.7v1.7c0,0.3,0,0.4,0.1,0.6
			c0,0.1,0.1,0.2,0.2,0.2c0.1,0,0.3,0,0.5,0h1c0.3,0,0.5,0,0.6,0c0.1,0,0.2-0.1,0.2-0.1c0.1-0.1,0.1-0.2,0.1-0.4h0.1v0.8h-3.8V9.9
			c0.1,0,0.2,0,0.3-0.1c0.1,0,0.1-0.1,0.1-0.3V5c0-0.2,0-0.3-0.1-0.4C38.5,4.5,38.3,4.5,38.1,4.5z"/>
		<path class="st0" d="M45.4,4.3c0.8,0,1.4,0.2,1.9,0.7C47.8,5.5,48,6.1,48,6.8c0,0.9-0.3,1.7-0.9,2.3c-0.6,0.6-1.3,0.9-2.3,0.9
			c-0.8,0-1.4-0.3-1.9-0.8c-0.5-0.5-0.7-1.1-0.7-1.8c0-0.5,0.1-1,0.4-1.5c0.2-0.5,0.6-0.9,1.1-1.2C44.2,4.5,44.7,4.3,45.4,4.3z
			 M45.3,9.7c0.4,0,0.8-0.1,1.1-0.3c0.4-0.2,0.7-0.5,0.9-0.8c0.2-0.4,0.3-0.7,0.3-1.1c0-0.5-0.1-1-0.4-1.5c-0.3-0.4-0.7-0.8-1.1-1
			c-0.5-0.2-0.9-0.4-1.3-0.4c-0.5,0-1,0.2-1.5,0.6c-0.4,0.4-0.7,0.9-0.7,1.5c0,0.8,0.3,1.5,0.8,2.1C44,9.4,44.7,9.7,45.3,9.7z"/>
	</g>
	<g>
		<path class="st0" d="M7.9,11.2h1.3v0.1c-0.4,0-0.7,0.3-0.7,0.7c0,0.1,0,0.2,0,0.4l0.9,6.2c0.1,0.3,0.1,0.5,0.2,0.6
			c0.1,0.1,0.2,0.1,0.4,0.2v0.1H8.2v-0.1c0.2,0,0.4-0.1,0.4-0.4c0-0.1,0-0.2,0-0.3l-0.8-6l-2.9,6.8H4.7l-3-6.8l-0.8,6.1
			c0,0.1,0,0.2,0,0.3c0,0.2,0.1,0.3,0.4,0.3v0.1H0v-0.1c0.2,0,0.3,0,0.4-0.1c0.1,0,0.1-0.1,0.1-0.2c0-0.1,0.1-0.2,0.1-0.3L1.5,12
			c-0.2-0.4-0.3-0.6-0.5-0.7c-0.2-0.1-0.3-0.1-0.4-0.1v-0.1h1.5l2.9,6.7L7.9,11.2z"/>
		<path class="st0" d="M14.9,15.6h-2.4l-1.2,3.1c-0.1,0.2-0.1,0.4-0.1,0.4c0,0.1,0.1,0.2,0.3,0.2v0.1h-1.2v-0.1c0.2,0,0.3,0,0.4-0.1
			c0.1-0.1,0.2-0.3,0.4-0.6l3-7.5h0.1l2.9,7.2c0,0,0.1,0.2,0.2,0.5c0.2,0.3,0.4,0.5,0.7,0.5v0.1H16v-0.1c0.2,0,0.3-0.1,0.3-0.2
			c0-0.1,0-0.2-0.1-0.4c0,0,0,0,0-0.1c0,0,0-0.1,0-0.1L14.9,15.6z M12.5,15.4h2.2l-1.1-2.8L12.5,15.4z"/>
		<path class="st0" d="M18.4,11.2L18.4,11.2l2.3-0.1c0.6,0,1,0,1.3,0c0.3,0,0.5,0.1,0.8,0.3c0.3,0.1,0.5,0.3,0.6,0.6
			c0.1,0.3,0.2,0.6,0.2,0.9c0,0.4-0.1,0.8-0.4,1.2c-0.3,0.4-0.6,0.7-1.1,1l0.6,0.9c0.1,0.2,0.5,0.7,1,1.5c0.5,0.8,1,1.2,1.3,1.4
			c0.3,0.2,0.6,0.2,0.9,0.2c0.3,0,0.6-0.1,0.9-0.3l0,0.1c-0.4,0.4-1,0.5-1.7,0.5c-0.5,0-0.9-0.1-1.2-0.4c-0.3-0.3-0.9-1.1-1.8-2.3
			c0,0,0,0,0,0l-0.8-1.3l-0.7,0h-0.7v3.1c0,0.3,0,0.4,0.1,0.5c0.1,0.1,0.2,0.2,0.5,0.2v0.1h-2.1v-0.1c0.3,0,0.4-0.1,0.5-0.2
			c0.1-0.1,0.1-0.3,0.1-0.6V12c0-0.2,0-0.4-0.1-0.5C18.8,11.3,18.7,11.2,18.4,11.2z M19.9,11.4v3.8h0.9c0.7,0,1.2-0.2,1.5-0.5
			c0.3-0.3,0.5-0.7,0.5-1.3c0-0.5-0.2-1-0.5-1.4c-0.3-0.5-0.9-0.7-1.7-0.7H19.9z"/>
		<path class="st0" d="M29.6,11.2L29.6,11.2c-0.1,0.1-0.2,0.1-0.4,0.1c-0.1,0-0.2,0.1-0.2,0.2c0,0.1,0,0.3,0,0.6v6.3
			c0,0.3,0,0.6,0,0.6c0,0.1,0.1,0.1,0.2,0.2c0.1,0.1,0.2,0.1,0.4,0.1v0.1h-2.2v-0.1c0.3,0,0.4-0.1,0.5-0.2C28,19,28,18.8,28,18.4
			v-6.2c0-0.4,0-0.6-0.1-0.8c-0.1-0.1-0.2-0.2-0.5-0.2v-0.1H29.6z"/>
		<path class="st0" d="M37.1,11.2h1.6v0.1c-0.2,0-0.4,0.1-0.5,0.2c-0.1,0.1-0.1,0.3-0.1,0.6v7.5l-6.5-7v6.1c0,0.2,0,0.3,0,0.4
			c0,0.1,0.1,0.2,0.1,0.2c0.1,0,0.2,0.1,0.4,0.1v0.1h-1.6v-0.1c0.3,0,0.5-0.1,0.5-0.2c0.1-0.1,0.1-0.3,0.1-0.7v-5.6
			c0-0.5-0.1-0.9-0.2-1.2c-0.1-0.3-0.4-0.5-0.9-0.4v-0.1h1.5l6.2,6.5v-5.8c0-0.3-0.1-0.5-0.2-0.6C37.4,11.3,37.3,11.2,37.1,11.2
			L37.1,11.2z"/>
		<path class="st0" d="M44.1,11c1.2,0,2.1,0.3,2.8,1.1c0.7,0.7,1.1,1.6,1.1,2.6c0,1.3-0.4,2.5-1.3,3.4c-0.8,0.9-2,1.4-3.4,1.4
			c-1.1,0-2.1-0.4-2.8-1.1c-0.7-0.7-1.1-1.6-1.1-2.7c0-0.7,0.2-1.4,0.5-2.2c0.3-0.7,0.9-1.3,1.6-1.8C42.3,11.3,43.1,11,44.1,11z
			 M44,19.1c0.6,0,1.1-0.2,1.7-0.5c0.5-0.3,1-0.7,1.3-1.3c0.3-0.5,0.5-1.1,0.5-1.6c0-0.8-0.2-1.5-0.6-2.2c-0.4-0.6-1-1.2-1.7-1.5
			c-0.7-0.4-1.3-0.6-1.9-0.6c-0.8,0-1.6,0.3-2.2,0.9c-0.7,0.6-1,1.4-1,2.3c0,1.2,0.4,2.2,1.2,3.1C42.1,18.6,43,19.1,44,19.1z"/>
	</g>
</g>
</svg>
