<?xml version="1.0" encoding="utf-8"?>
<!-- Generator: Adobe Illustrator 22.0.1, SVG Export Plug-In . SVG Version: 6.00 Build 0)  -->
<svg version="1.1" id="Layer_1" xmlns="http://www.w3.org/2000/svg" xmlns:xlink="http://www.w3.org/1999/xlink" x="0px" y="0px"
	 viewBox="0 0 24 24" style="enable-background:new 0 0 24 24;" xml:space="preserve">
<style type="text/css">
	.st0{fill:#FFFFFF;}
</style>
<g>
	<path class="st0" d="M8.2,9.3c-0.5,0.2-0.5,0.7-0.5,0.9c0,0.8,0.8,1,1.1,1c0.3,0,0.6-0.2,0.6-0.2s0.1,0,0.1,0
		c0.1,0.2,0.3,0.4,0.5,0.6c0.2,0.2,0.5,0.3,0.6,0.3c0.4,0.1,0.9,0.1,0.9,0c0.1-0.1,0.1-0.3,0.2-0.6C12,11,12.1,11,12.2,11
		c0.1,0,0.3-0.1,0.3-0.1c0.3-0.1,0.2-0.4,0.2-0.4c0-0.8-0.5-0.5-0.5-0.5c-0.4,0.2-0.1-0.1,0-0.2s0.3-0.2,0.3-0.3
		c0-0.1-0.1-0.2-0.1-0.3c0-0.1,0.2-0.2,0.2-0.3c0-0.1-0.1-0.2-0.1-0.2C12.3,8.4,12,8.2,11.8,8c-0.2-0.1-0.7-0.5-0.8-0.5
		c-0.1-0.1-0.3-0.3-0.6-0.3c-0.3,0-0.6,0.2-0.7,0.3C9.3,7.7,9.1,8.2,9.1,8.5c0,0.3,0.1,0.7,0.1,0.7C9,9.3,8.9,8.8,8.9,8.5
		c0-0.3,0.1-0.7,0.5-1C9.7,7.2,10.1,7,10.5,7c0.4,0,0.6,0.2,0.6,0.2c0.1,0,0.2,0,0.2,0C11.5,7.2,12,6.4,12,5.7s-0.1-0.8-0.2-1
		c-0.1-0.2-0.2-0.1-0.2-0.1c-0.1,0.2-0.1,0.6-0.1,0.6c-0.1,0.4-0.3,0.7-0.3,0.7C11,6.2,11,5.9,11,5.8c0-0.9-0.7-1-0.9-1
		S9.9,4.9,10,4.9s0.2,0.3,0.2,0.4c0.2,0.3,0.2,0.4,0.2,0.6c0,0.4-0.1,0.3-0.1,0.1C10.2,5.9,10,5.6,10,5.6C9.8,5.2,9.3,5.2,9.3,5.2
		c-0.4,0-0.2,0.2-0.1,0.4c0.3,0.3,0.4,0.6,0.4,0.6c0,0.2,0,0.3-0.1,0.1C9.2,6.1,9.1,6,8.8,6C8.2,6,8.1,6.5,8.1,6.5
		C8,6.6,8,6.6,8.1,6.6c0.1,0,0.3-0.1,0.4-0.1c0.4,0,0.4,0.2,0.4,0.3c0,0.1-0.1,0.1-0.1,0.1c0,0-0.2-0.1-0.4-0.1
		c-0.7,0-0.8,0.7-0.8,0.7c0,0.1,0,0.1,0.1,0.1c0.1,0,0.1,0,0.1,0c0.1-0.1,0.5-0.2,0.6-0.2c0.1,0,0.2,0,0.2,0.1
		c0,0.1-0.2,0.1-0.2,0.1c0,0,0,0,0,0C7.6,7.7,7.6,8.2,7.6,8.4c0,0.2,0.1,0.1,0.1,0.1C8,8.2,8.3,8.2,8.3,8.2c0.2,0,0.2,0.2,0.1,0.2
		C7.6,8.7,7.6,9.1,7.6,9.2c0,0.2,0.1,0.1,0.2,0.1c0.1,0,0.4-0.3,0.5-0.2C8.4,9.1,8.3,9.2,8.2,9.3z M12,9c0,0,0.1,0,0,0.1
		c0,0-0.1,0.1-0.1,0.1c0,0-0.1,0-0.1-0.1C11.8,9.1,11.8,9,12,9z M11,8.4c-0.1,0.4-0.6,0.5-0.6,0.5C10.4,8.3,11,8.4,11,8.4z M8.6,9.8
		c0,0,0.5,0,0.6,0.5c0,0,0,0.3-0.3,0.4c-0.3,0-0.6-0.2-0.6-0.5C8.2,10.2,8.2,9.8,8.6,9.8z"/>
	<path class="st0" d="M12,14.1c0.5,0,1.7-0.1,2.5-0.7c0-0.1,0.1-0.9,0.1-0.9s-1.3,0.7-2.8,0.7c0,0-2.4,0.1-3.7-1.7
		c0,0-0.7-1-0.7-2.9c0,0-0.4-4.1,4.4-4.2c0,0,1,0,2.3,0.3c0.3,0.1,2.6,1.1,2.6,4c0,0.3,0.1,0.7-0.3,1.7c0,0.1-0.3,0.6-0.6,1.3
		c0,0.1-0.1,0.7-0.1,0.9c0,0,0.2,0.1,0.9-0.8c0.1-0.1,0.9-1.3,0.9-3c0,0,0-1.1-0.4-2.2c-0.1-0.2-0.4-1.2-1-1.6c0,0-1.5-1.5-4.1-1.6
		c0,0-1.5,0-2.6,0.4c0,0-0.6,0.2-1.1,0.6c0,0-0.6,0.4-1,1c0,0.1-0.9,1.2-0.9,3.1c0,0.3,0.1,1.6,0.5,2.8C7,11.5,7.9,14.1,12,14.1z"/>
	<path class="st0" d="M9.7,12.6c0.1,0.1,0.8,0.4,2.2,0.5c0.2,0,0.7,0,1-0.2c0,0,0.1-0.8,0.1-1.3c0-0.2,0-0.4-0.1-0.5
		c-0.1-0.1-0.6-0.1-0.7,0.1c0,0-0.1,0-0.2,0.3c0,0.1-0.1,0.3-0.2,0.5c-0.1,0.1-0.4,0.2-0.6,0.2c0,0-1,0.1-1.7-1c0,0-0.1-0.1-0.1,0.1
		c0,0-0.1,0.1-0.8,0.2c0,0,0,0-0.1,0.2C8.5,11.6,8.8,12.1,9.7,12.6z"/>
	<path class="st0" d="M13.4,12.8c0,0,0.6-0.2,0.9-0.4c0-0.1,0.2-0.7,0.4-1.4c0-0.2,0.1-0.7,0.1-1.1c-0.1,0-0.7,0.2-1.4,0.2
		c-0.1,0-0.3,0-0.3,0.1c0,0.2,0.1,1.3,0.1,1.7c0,0.2,0,0.7,0,0.8C13.1,12.8,13.1,12.9,13.4,12.8z"/>
	<path class="st0" d="M14.3,9.8c0.4-0.1,0.6-0.3,0.6-0.6c0,0,0-0.2-0.2-0.2c-0.2,0-0.3,0.3-0.8,0.4c-0.3,0-0.7,0-0.8,0
		c0,0-0.1,0-0.1,0.2c0,0.2,0,0.2,0.4,0.3C13.5,10,13.9,9.9,14.3,9.8z"/>
	<path class="st0" d="M14.1,8.6c-0.1,0.1-0.2,0.2-0.3,0.2c-0.5,0-0.8,0.1-0.8,0.1c-0.2,0-0.2,0.2-0.1,0.3c0,0.1,0.1,0.1,0.3,0.1
		c0.2,0,0.6,0,0.7,0c0.3-0.1,0.8-0.4,0.7-0.7c0-0.2-0.2-0.3-0.2-0.3C14.3,8.4,14.2,8.5,14.1,8.6z"/>
	<path class="st0" d="M12.3,7.3c-0.3,0-0.4,0.1-0.4,0.2c0,0.2,0.2,0.1,0.3,0.2c0.1,0,0.3,0,0.3,0.1c0.1,0.1,0,0-0.1,0
		c-0.2,0-0.4-0.1-0.4,0.2C12,8,12,8,12.1,8c0.1,0,0.3,0.1,0.6,0.4c0.1,0.1,0.3,0.2,0.7,0.2c0.4,0,0.7-0.2,0.9-0.7c0,0,0-0.7-0.8-1.3
		c-0.1,0-0.5-0.3-0.7-0.3c-0.3,0-0.4,0-0.4,0.2c0,0.1,0.2,0.1,0.3,0.2c0.1,0.1,0.4,0.2-0.1,0.1C12.6,6.8,12,6.7,12,7
		C12,7.1,12,7.2,12.3,7.3C12.6,7.2,12.7,7.3,12.3,7.3z"/>
	<path class="st0" d="M8.6,10.4c0,0,0.3,0,0.3-0.3c0-0.1-0.1-0.2-0.3-0.2c-0.2,0-0.3,0.1-0.3,0.3C8.3,10.3,8.4,10.4,8.6,10.4z"/>
	<path class="st0" d="M14.8,14.5c0,0,0.1,0,0.1-0.1c0,0,0.7-2.4,0.7-2.7c0.1-0.4,0.2-0.9,0.3-1.3c0-0.2,0-0.3-0.7-0.9
		c0,0-0.1-0.1-0.1-0.1c0,0-0.1-0.1-0.1,0.1c0,0.2-0.2,0.5-0.3,1.8c0,0,0,0.3,0,0.7c0,0.4-0.2,1.5-0.1,1.9
		C14.7,14.3,14.7,14.5,14.8,14.5z"/>
	<path class="st0" d="M16.2,10.1c0.1,0,0.1-0.2,0.1-0.2c0-0.2,0.1-1,0.1-1.4c0-0.4-0.1-0.7-0.1-0.7c-0.1-0.4-0.3-0.8-0.4-0.9
		c-0.4-0.6-0.5-0.7-0.6-0.8c-0.2-0.2-0.2-0.1-0.2-0.1c-0.2,0.2-0.5,0.4-0.5,0.4c-0.4,0.1-0.6,0-0.7,0C14,6.5,14,6.6,14,6.7
		c0.1,0.5,0.3,0.9,0.4,1.1c0.2,0.4,0.5,1,0.6,1.1C15.6,9.7,16.2,10.1,16.2,10.1z"/>
	<path class="st0" d="M14.8,5.2c-0.4-0.2-0.5-0.2-0.8-0.3c-0.4,0-0.4,0.1-0.5,0.2c0,0.1-0.1,0.1-0.1,0.1c-0.3,0.1-0.2,0.5-0.2,0.6
		c0,0.3,0.2,0.5,0.3,0.4c0.1-0.2,0.2-0.2,0.2-0.2c0.5,0.2,0.6,0.2,0.6,0.2c0.9-0.1,1-0.3,1-0.4c0.1-0.1,0-0.3,0-0.3
		C15.1,5.5,14.8,5.2,14.8,5.2z M14,5.6c0,0-0.1,0-0.1-0.1c0-0.1,0.1-0.1,0.1-0.1c0,0,0.1,0,0.1,0.1C14.1,5.5,14,5.6,14,5.6z"/>
	<path class="st0" d="M1.9,20c0.5,0,0.8-0.1,1.1-0.2C3,19.6,3.1,19.2,3.1,19H2.9c-0.1,0.4-0.4,0.8-1,0.8c-0.8,0-1.4-0.6-1.4-1.5
		c0-0.9,0.5-1.5,1.3-1.5c0.6,0,1,0.3,1,1h0.1c0-0.1,0.1-0.5,0.1-0.8c0-0.1,0-0.2,0-0.3c-0.2,0-0.7-0.1-1.2-0.1
		c-1.2,0-1.9,0.7-1.9,1.8C0,19.5,0.8,20,1.9,20z"/>
	<path class="st0" d="M5.5,20c1,0,1.8-0.7,1.8-1.8c0-1-0.7-1.8-1.8-1.8c-1,0-1.8,0.7-1.8,1.8C3.7,19.3,4.4,20,5.5,20z M5.5,16.7
		c0.9,0,1.3,0.8,1.3,1.5c0,0.8-0.4,1.5-1.2,1.5c-0.9,0-1.3-0.7-1.3-1.6C4.3,17.4,4.7,16.7,5.5,16.7z"/>
	<path class="st0" d="M10.3,16.7l0.2,0c0.2,0,0.3,0.1,0.3,0.7l0,1.6l0,0c-0.6-0.7-1.4-1.7-1.9-2.2c-0.1-0.1-0.2-0.2-0.3-0.2H7.7v0.1
		l0.2,0c0.2,0,0.4,0.1,0.4,0.4l0,1.9c0,0.7,0,0.8-0.3,0.8l-0.2,0V20H9v-0.1l-0.2,0c-0.2,0-0.3-0.1-0.3-0.8l0-1.8l0,0
		c1,1.1,1.7,1.9,2.3,2.8c0.1,0,0.2,0,0.2,0v-2.5c0-0.7,0-0.8,0.3-0.8l0.2,0v-0.1h-1.3V16.7z"/>
	<path class="st0" d="M12.9,19.9c-0.3,0-0.4-0.1-0.4-0.2c0-0.1,0.1-0.4,0.2-0.6l0.1-0.3c0.1,0,1,0,1.1,0l0.2,0.4
		c0.1,0.3,0.1,0.4,0.1,0.5c0,0.1-0.1,0.2-0.3,0.2l-0.2,0V20h1.5v-0.1c-0.2,0-0.3,0-0.4-0.2c-0.2-0.3-1.1-2.6-1.3-3.1
		c0,0-0.1,0-0.1,0l-1.2,2.9c-0.2,0.4-0.3,0.4-0.5,0.5V20h1.2V19.9z M13.3,17.4L13.3,17.4l0.5,1.1l-1,0C13,18.2,13.1,17.8,13.3,17.4z
		"/>
	<path class="st0" d="M15.5,16.6v0.1l0.2,0c0.2,0,0.2,0.1,0.2,0.8V19c0,0.7,0,0.8-0.2,0.8l-0.2,0V20h1.3c0.8,0,1.3-0.4,1.3-1
		c0-0.5-0.4-0.8-0.9-0.8v0c0.3-0.1,0.6-0.4,0.6-0.8c0-0.5-0.4-0.8-1.1-0.8C16.4,16.6,15.8,16.6,15.5,16.6z M17.5,19.1
		c0,0.5-0.3,0.7-0.7,0.7c-0.3,0-0.4-0.1-0.4-0.7v-0.8l0.3,0C17.3,18.3,17.5,18.6,17.5,19.1z M17.3,17.4c0,0.4-0.2,0.6-0.6,0.6
		l-0.3,0v-1.2c0.1,0,0.2-0.1,0.3-0.1C17.1,16.8,17.3,17,17.3,17.4z"/>
	<path class="st0" d="M20,19.9l-0.2,0c-0.2,0-0.2-0.1-0.2-0.8v-1.5c0-0.7,0-0.8,0.2-0.8l0.2,0v-0.1h-1.5v0.1l0.2,0
		c0.2,0,0.2,0.1,0.2,0.8V19c0,0.7,0,0.8-0.2,0.8l-0.2,0V20H20V19.9z"/>
	<path class="st0" d="M22.2,20c1,0,1.8-0.7,1.8-1.8c0-1-0.7-1.8-1.8-1.8c-1,0-1.8,0.7-1.8,1.8C20.4,19.3,21.1,20,22.2,20z
		 M22.2,16.7c0.9,0,1.3,0.8,1.3,1.5c0,0.8-0.4,1.5-1.2,1.5c-0.9,0-1.3-0.7-1.3-1.6C21,17.4,21.4,16.7,22.2,16.7z"/>
</g>
</svg>
