<?xml version="1.0" encoding="utf-8"?>
<!-- Generator: Adobe Illustrator 22.0.1, SVG Export Plug-In . SVG Version: 6.00 Build 0)  -->
<svg version="1.1" id="Layer_1" xmlns="http://www.w3.org/2000/svg" xmlns:xlink="http://www.w3.org/1999/xlink" x="0px" y="0px"
	 viewBox="0 0 794.9 92" style="enable-background:new 0 0 794.9 92;" xml:space="preserve">
<style type="text/css">
	.st0{fill:#CCCCCC;}
	.st1{fill:#15A6FF;}
	.st2{fill:url(#SVGID_1_);}
	.st3{fill:url(#SVGID_2_);}
	.st4{fill:url(#SVGID_3_);}
	.st5{fill:url(#SVGID_4_);}
</style>
<g>
	<g>
		<path class="st0" d="M311,64.2v25.4h-23.3V2.4h36.7c6.7,0,12.7,1.2,18.1,3.5c5.4,2.4,9.7,5.9,12.9,10.6c3.2,4.7,4.8,10.5,4.8,17.2
			c0,6.7-1.7,12.3-5.1,16.9c-3.4,4.6-7.9,8-13.5,10.2c-5.6,2.2-11.7,3.3-18.3,3.3H311z M336.1,33.8c0-3.9-1.1-7.1-3.4-9.5
			c-2.3-2.4-5.3-3.6-9.2-3.6H311v25.1h12.8c3.6,0,6.5-1.2,8.8-3.5C335,40.1,336.1,37.2,336.1,33.8z"/>
		<path class="st0" d="M366.6,46.4c0-8.8,1.9-16.7,5.8-23.6c3.8-7,9.2-12.4,16-16.3c6.8-3.9,14.6-5.8,23.2-5.8c9.2,0,17.2,2,24,5.9
			c6.8,3.9,12,9.3,15.6,16.1c3.6,6.8,5.4,14.4,5.4,22.8c0,8.9-1.9,16.8-5.7,23.8c-3.8,7-9.1,12.4-16,16.3
			c-6.8,3.9-14.7,5.8-23.5,5.8c-9.1,0-17-2-23.8-6c-6.8-4-12-9.4-15.7-16.2C368.5,62.3,366.6,54.7,366.6,46.4z M411.9,20.1
			c-3.9,0-7.5,1.1-10.7,3.3c-3.2,2.2-5.8,5.3-7.7,9.2c-1.9,4-2.9,8.5-2.9,13.6c0,7.5,1.9,13.7,5.6,18.5c3.7,4.8,8.8,7.2,15.3,7.2
			c6.2,0,11.3-2.3,15.3-6.9c4-4.6,6-11.1,6-19.5c0-7.4-1.9-13.5-5.7-18.3C423.3,22.5,418.2,20.1,411.9,20.1z"/>
		<path class="st0" d="M470.8,89.6V2.4h36.7c10.4,0,19,2.5,25.8,7.4c6.7,5,10.1,12.4,10.1,22.3c0,5.1-1,9.6-3.1,13.5
			c-2.1,3.9-5,7.1-8.7,9.5l19.2,34.4h-27l-14.1-27.4h-15.5v27.4H470.8z M519.3,32.1c0-3.8-1.1-6.6-3.3-8.5c-2.2-1.9-5.3-2.9-9.3-2.9
			h-12.6v23.1H507c3.6,0,6.5-1.1,8.8-3.3C518.1,38.4,519.3,35.6,519.3,32.1z"/>
		<path class="st0" d="M553.4,2.4H628l2.2,18.3h-27.8v68.8H579V20.7h-25.6V2.4z"/>
		<path class="st0" d="M632.7,89.6l32.7-87.2h23.3l32.6,86.1l-22.9,2.3l-6.3-18.5H662l-6,17.2H632.7z M668.4,54.1h17l-8.7-23.7
			L668.4,54.1z"/>
		<path class="st0" d="M756.2,71.2h37l2.2,18.3h-62.5V2.4h23.3V71.2z"/>
	</g>
	<g>
		<path class="st1" d="M294.8,61.6c-2.2-2.7-4.5-5.2-7-7.6c-0.8-0.8-1.7-1.6-2.5-2.3c-0.1-0.1-0.1-0.1-0.2-0.2
			c-0.9-0.8-1.8-1.6-2.8-2.3c-0.7-0.6-1.4-1.1-2.2-1.7c-0.2-0.2-0.4-0.4-0.7-0.5c-0.8-0.6-1.6-1.1-2.4-1.7c-0.2-0.1-0.4-0.3-0.6-0.4
			c-0.8-0.5-1.6-1-2.4-1.5c-3.5-2.2-7.2-4.1-11.1-5.7c-5.1-2.1-10.3-3.7-15.7-4.8c0,0,0,0,0,0c-3-0.6-6-1.1-9-1.4c0,0-0.1,0-0.1,0
			c-2-0.2-4-0.4-6-0.5c0,0,0,0-0.1,0c-0.9-0.1-1.8-0.1-2.7-0.1c-0.2,0-0.5,0-0.7,0c-0.7,0-1.4,0-2.1,0c-0.3,0-0.6,0-0.8,0
			c-0.9,0-1.8,0-2.7,0c-1.4,0-2.8,0.1-4.1,0.2c-0.6,0-1.2,0.1-1.8,0.1c-0.5,0-1.1,0.1-1.6,0.1c-1.6,0.1-3.2,0.2-4.7,0.4
			c-2.6,0.3-5.2,0.6-7.8,1c-1.7,0.2-3.3,0.5-5,0.8c-1.7,0.3-3.3,0.6-4.9,0.9c-1.6,0.3-3.3,0.7-4.9,1c-1.3,0.3-2.5,0.6-3.8,0.8l0,0
			c-0.4,0.1-0.7,0.2-1.1,0.2c-1.6,0.4-3.3,0.8-4.9,1.2c-0.3,0.1-0.7,0.2-1,0.3c-1.3,0.3-2.6,0.6-3.9,1c-0.2,0.1-0.5,0.1-0.7,0.2
			c-1.4,0.4-2.8,0.7-4.2,1.1c-0.1,0-0.2,0.1-0.3,0.1c-1.5,0.4-3,0.8-4.6,1.3l0,0c-6.2,1.7-12.4,3.6-18.5,5.4
			c-12.5,3.7-24.8,7.5-37.2,10.6c-1.7,0.4-3.5,0.9-5.2,1.3c0,0,0,0,0,0c-1.7,0.4-3.5,0.8-5.2,1.2c0,0,0,0,0,0l0,0
			c-7,1.5-14,2.7-21,3.5l0,0c0,0,0,0,0,0c-0.7,0.1-1.5,0.2-2.2,0.2c-1.2,0.1-2.4,0.2-3.6,0.3c-1.2,0.1-2.4,0.1-3.6,0.2
			c-0.3,0-0.6,0-0.8,0c-1.2,0-2.3,0.1-3.5,0.1c-0.1,0-0.2,0-0.2,0c-0.2,0-0.4,0-0.7,0c-0.8,0-1.5,0-2.3,0c-0.4,0-0.8,0-1.2,0
			c-0.9,0-1.7-0.1-2.6-0.1c-0.4,0-0.9-0.1-1.3-0.1c-0.8-0.1-1.5-0.1-2.3-0.2c-0.4,0-0.9-0.1-1.3-0.1c-0.2,0-0.5,0-0.7-0.1
			c0,0,0,0,0,0c-5.5-0.6-11-1.8-16.4-3.4c-4.1-1.3-8.1-2.8-12-4.7l0,0c0,0,0,0,0,0c-0.8-0.4-1.7-0.8-2.5-1.2c-0.1,0-0.2-0.1-0.2-0.1
			c-0.9-0.4-1.7-0.9-2.6-1.4c-0.4-0.2-0.8-0.5-1.2-0.7v0c-2.4-1.3-4.7-2.8-6.9-4.4c-1.3-0.9-2.7-1.8-3.9-2.8c-1.3-1-2.6-2-3.9-3l0,0
			c-0.2-0.1-0.4-0.1-0.6,0C0,41.8,0,42.1,0.1,42.3c6.5,8,14.5,15,23.7,20.4c0.9,2.7,2,5.3,3.3,7.8c3.8,6.7,9.2,11.9,16.2,15.4
			c7,3.5,15.2,5.3,24.6,5.3c4.9,0,10.3-0.6,16.2-1.7c5.9-1.2,10.5-2.7,13.7-4.7V72.4c4.5-0.7,9-1.6,13.4-2.6c0.7-0.1,1.3-0.3,2-0.5
			v20.2h63.8l-2.2-18.3h-38.3v-8c4.3-1.2,8.5-2.5,12.7-3.8c4.9-1.5,9.8-3,14.7-4.5l1.5-0.5c6-1.8,12.1-3.6,18.1-5.3
			c0.4,7.3,2.2,13.9,5.4,19.9c3.7,6.8,8.9,12.2,15.7,16.2c6.8,4,14.7,6,23.8,6c8.8,0,16.6-1.9,23.5-5.8c6.8-3.9,12.2-9.3,16-16.3
			c3.3-6,5.1-12.7,5.6-20.1c1.6,0.7,3.1,1.5,4.7,2.4c1.4,0.8,2.8,1.5,4.1,2.4c1.3,0.9,2.7,1.7,4,2.6c1.3,0.9,2.6,1.8,3.9,2.8
			c1.3,1,2.5,2,3.8,3l0,0c0.2,0.1,0.4,0.1,0.6,0C294.9,62.2,295,61.8,294.8,61.6z M243.7,65c-4,4.6-9.1,6.9-15.3,6.9
			c-6.5,0-11.6-2.4-15.3-7.2c-3.7-4.8-5.6-10.9-5.6-18.5c0-0.9,0-1.8,0.1-2.7c5.4-1,10.7-1.8,16.1-2.3c8.6-0.8,17.3-0.7,25.8,0.5
			c0.1,1.2,0.2,2.4,0.2,3.6C249.6,53.9,247.6,60.4,243.7,65z"/>
		<g>
			<linearGradient id="SVGID_1_" gradientUnits="userSpaceOnUse" x1="229.4646" y1="0.7959" x2="229.4646" y2="56.5832">
				<stop  offset="0" style="stop-color:#15A6FF"/>
				<stop  offset="1" style="stop-color:#3FACFF;stop-opacity:0.2"/>
			</linearGradient>
			<path class="st2" d="M268.1,22.7c-3.6-6.8-8.8-12.2-15.6-16.1c-6.8-3.9-14.8-5.9-24-5.9c-8.6,0-16.4,1.9-23.2,5.8
				c-6.8,3.9-12.2,9.3-16,16.3c-1.2,2.2-2.2,4.4-3,6.8c0.3-0.1,0.5-0.1,0.8-0.2c1.6-0.3,3.3-0.7,5-1c1.5-0.3,3.3-0.6,5.1-0.9
				c1.5-0.3,3.3-0.6,5.1-0.8c4.5-0.7,9-1.1,13.6-1.4c0.7-0.7,1.5-1.3,2.3-1.8c3.2-2.2,6.8-3.3,10.7-3.3c5.8,0,10.5,2,14.2,6
				c8,1.2,15.5,3.3,22.4,6.2c2.5,1,5,2.2,7.4,3.5C271.8,31.1,270.3,26.7,268.1,22.7z"/>
			<linearGradient id="SVGID_2_" gradientUnits="userSpaceOnUse" x1="145.1675" y1="0.7959" x2="145.1675" y2="56.5832">
				<stop  offset="0" style="stop-color:#15A6FF"/>
				<stop  offset="1" style="stop-color:#3FACFF;stop-opacity:0.2"/>
			</linearGradient>
			<path class="st3" d="M177.1,20.7l-2.2-18.3h-61.7v47.4c8.4-2.3,16.9-4.8,25.2-7.3c1.8-0.5,3.5-1.1,5.3-1.6
				c4.7-1.4,9.6-2.9,14.7-4.3h-21.8V20.7H177.1z"/>
			<linearGradient id="SVGID_3_" gradientUnits="userSpaceOnUse" x1="79.8656" y1="0.7959" x2="79.8656" y2="56.5832">
				<stop  offset="0" style="stop-color:#15A6FF"/>
				<stop  offset="1" style="stop-color:#3FACFF;stop-opacity:0.2"/>
			</linearGradient>
			<path class="st4" d="M61.9,56.4h15v0.9c6.5-0.7,13.4-1.9,21-3.6V39.3h-34L61.9,56.4z"/>
			<linearGradient id="SVGID_4_" gradientUnits="userSpaceOnUse" x1="59.2296" y1="0.7959" x2="59.2296" y2="56.5832">
				<stop  offset="0" style="stop-color:#15A6FF"/>
				<stop  offset="1" style="stop-color:#3FACFF;stop-opacity:0.2"/>
			</linearGradient>
			<path class="st5" d="M78.8,20.7c3.2,0.6,7,1.6,11.3,3L97,7.9c-3.2-2.2-7.6-4-13-5.3c-5.4-1.3-10.5-1.9-15.2-1.9
				c-8.6,0-16.6,1.8-23.8,5.5c-7.2,3.7-12.9,9-17.2,15.9c-4.2,6.9-6.3,15-6.3,24.2c0,0.6,0,1.2,0,1.9c4.8,2.5,9.6,4.5,14.4,6
				c3.6,1.1,7.3,2,11.2,2.6c-1-3.1-1.5-6.6-1.5-10.6c0-5.6,1.2-10.4,3.5-14.4c2.3-4,5.3-7,9-9c3.6-2,7.3-3,11-3
				C72.3,19.8,75.5,20.1,78.8,20.7z"/>
		</g>
	</g>
</g>
</svg>
