<svg id="Layer_1" data-name="Layer 1" xmlns="http://www.w3.org/2000/svg" viewBox="0 0 24.1 16.7"><defs><style>.cls-1{fill:#8a191b;}.cls-2{fill:#818183;}</style></defs><title>logo-conabio-red-title</title><path class="cls-1" d="M8.2,9.3a.87.87,0,0,0-.5.9,1.06,1.06,0,0,0,1.1,1,1.27,1.27,0,0,0,.6-.2h.1a2.65,2.65,0,0,0,.5.6,1.1,1.1,0,0,0,.6.3c.4.1.9.1.9,0s.1-.3.2-.6c.3-.3.4-.3.5-.3a1,1,0,0,0,.3-.1.31.31,0,0,0,.2-.4c0-.8-.5-.5-.5-.5-.4.2-.1-.1,0-.2s.3-.2.3-.3-.1-.2-.1-.3.2-.2.2-.3a.35.35,0,0,0-.1-.2,4.62,4.62,0,0,0-.7-.7,9.22,9.22,0,0,0-.8-.5.85.85,0,0,0-.6-.3,1.14,1.14,0,0,0-.7.3,1.22,1.22,0,0,0-.6,1,3.55,3.55,0,0,0,.1.7c-.2.1-.3-.4-.3-.7a1.22,1.22,0,0,1,.5-1A1.61,1.61,0,0,1,10.5,7a.88.88,0,0,1,.6.2h.2c.2,0,.7-.8.7-1.5a1.6,1.6,0,0,0-.2-1c-.1-.2-.2-.1-.2-.1a1.76,1.76,0,0,0-.1.6,2.49,2.49,0,0,1-.3.7c-.2.3-.2,0-.2-.1a.9.9,0,0,0-.9-1c-.2,0-.2.1-.1.1s.2.3.2.4a.85.85,0,0,1,.2.6c0,.4-.1.3-.1.1a4,4,0,0,1-.3-.4.83.83,0,0,0-.7-.4c-.4,0-.2.2-.1.4a1.72,1.72,0,0,1,.4.6c0,.2,0,.3-.1.1-.3-.2-.4-.3-.7-.3a.67.67,0,0,0-.7.5c-.1.1-.1.1,0,.1s.3-.1.4-.1c.4,0,.4.2.4.3a.1.1,0,0,1-.1.1,1,1,0,0,0-.4-.1.81.81,0,0,0-.8.7c0,.1,0,.1.1.1h.1a1.42,1.42,0,0,1,.6-.2c.1,0,.2,0,.2.1s-.2.1-.2.1h0c-.8.1-.8.6-.8.8s.1.1.1.1a.93.93,0,0,1,.6-.3c.2,0,.2.2.1.2-.8.3-.8.7-.8.8s.1.1.2.1.4-.3.5-.2S8.3,9.2,8.2,9.3ZM12,9s.1,0,0,.1l-.1.1a.1.1,0,0,1-.1-.1S11.8,9,12,9Zm-1-.6c-.1.4-.6.5-.6.5A.49.49,0,0,1,11,8.4ZM8.6,9.8a.62.62,0,0,1,.6.5.44.44,0,0,1-.3.4.56.56,0,0,1-.6-.5C8.2,10.2,8.2,9.8,8.6,9.8Z" transform="translate(0.1 -3.4)"/><path class="cls-1" d="M12,14.1a4.54,4.54,0,0,0,2.5-.7c0-.1.1-.9.1-.9a6.63,6.63,0,0,1-2.8.7,4.68,4.68,0,0,1-3.7-1.7,5.35,5.35,0,0,1-.7-2.9S7,4.5,11.8,4.4a11.34,11.34,0,0,1,2.3.3,4.18,4.18,0,0,1,2.6,4,3.32,3.32,0,0,1-.3,1.7c0,.1-.3.6-.6,1.3,0,.1-.1.7-.1.9,0,0,.2.1.9-.8a5.26,5.26,0,0,0,.9-3,7.25,7.25,0,0,0-.4-2.2,3.68,3.68,0,0,0-1-1.6A6.47,6.47,0,0,0,12,3.4a9.08,9.08,0,0,0-2.6.4,4,4,0,0,0-1.1.6,4.09,4.09,0,0,0-1,1,5.93,5.93,0,0,0-.9,3.1,10.77,10.77,0,0,0,.5,2.8C7,11.5,7.9,14.1,12,14.1Z" transform="translate(0.1 -3.4)"/><path class="cls-1" d="M9.7,12.6a4.92,4.92,0,0,0,2.2.5,2,2,0,0,0,1-.2s.1-.8.1-1.3a.75.75,0,0,0-.1-.5c-.1-.1-.6-.1-.7.1,0,0-.1,0-.2.3a1.69,1.69,0,0,1-.2.5,1.07,1.07,0,0,1-.6.2,1.92,1.92,0,0,1-1.7-1s-.1-.1-.1.1c0,0-.1.1-.8.2l-.1.2A8.88,8.88,0,0,0,9.7,12.6Z" transform="translate(0.1 -3.4)"/><path class="cls-1" d="M13.4,12.8a4.93,4.93,0,0,0,.9-.4c0-.1.2-.7.4-1.4,0-.2.1-.7.1-1.1a7.1,7.1,0,0,1-1.4.2c-.1,0-.3,0-.3.1s.1,1.3.1,1.7v.8C13.1,12.8,13.1,12.9,13.4,12.8Z" transform="translate(0.1 -3.4)"/><path class="cls-1" d="M14.3,9.8q.6-.15.6-.6a.2.2,0,0,0-.2-.2c-.2,0-.3.3-.8.4h-.8s-.1,0-.1.2,0,.2.4.3C13.5,10,13.9,9.9,14.3,9.8Z" transform="translate(0.1 -3.4)"/><path class="cls-1" d="M14.1,8.6c-.1.1-.2.2-.3.2a2.77,2.77,0,0,0-.8.1c-.2,0-.2.2-.1.3s.1.1.3.1h.7c.3-.1.8-.4.7-.7a.37.37,0,0,0-.2-.3Z" transform="translate(0.1 -3.4)"/><path class="cls-1" d="M12.3,7.3c-.3,0-.4.1-.4.2s.2.1.3.2.3,0,.3.1,0,0-.1,0S12,7.7,12,8h.1c.1,0,.3.1.6.4a1,1,0,0,0,.7.2.93.93,0,0,0,.9-.7,1.78,1.78,0,0,0-.8-1.3c-.1,0-.5-.3-.7-.3s-.4,0-.4.2.2.1.3.2.4.2-.1.1c0,0-.6-.1-.6.2,0,.1,0,.2.3.3C12.6,7.2,12.7,7.3,12.3,7.3Z" transform="translate(0.1 -3.4)"/><path class="cls-1" d="M8.6,10.4a.29.29,0,0,0,.3-.3c0-.1-.1-.2-.3-.2a.27.27,0,0,0-.3.3C8.3,10.3,8.4,10.4,8.6,10.4Z" transform="translate(0.1 -3.4)"/><path class="cls-1" d="M14.8,14.5a.1.1,0,0,0,.1-.1s.7-2.4.7-2.7.2-.9.3-1.3c0-.2,0-.3-.7-.9l-.1-.1s-.1-.1-.1.1a10.76,10.76,0,0,0-.3,1.8V12a12.1,12.1,0,0,0-.1,1.9C14.7,14.3,14.7,14.5,14.8,14.5Z" transform="translate(0.1 -3.4)"/><path class="cls-1" d="M16.2,10.1c.1,0,.1-.2.1-.2,0-.2.1-1,.1-1.4a2.44,2.44,0,0,0-.1-.7,2.56,2.56,0,0,0-.4-.9,4.52,4.52,0,0,0-.6-.8c-.2-.2-.2-.1-.2-.1a3.91,3.91,0,0,1-.5.4,1.49,1.49,0,0,1-.7,0,.37.37,0,0,1,.1.3,4.33,4.33,0,0,0,.4,1.1A9.05,9.05,0,0,0,15,8.9,5.53,5.53,0,0,0,16.2,10.1Z" transform="translate(0.1 -3.4)"/><path class="cls-1" d="M14.8,5.2a4.12,4.12,0,0,0-.8-.3c-.4,0-.4.1-.5.2a.1.1,0,0,1-.1.1c-.3.1-.2.5-.2.6,0,.3.2.5.3.4s.2-.2.2-.2a2.52,2.52,0,0,0,.6.2c.9-.1,1-.3,1-.4s0-.3,0-.3C15.1,5.5,14.8,5.2,14.8,5.2Zm-.8.4a.1.1,0,1,1,.1-.1Z" transform="translate(0.1 -3.4)"/><path class="cls-2" d="M1.9,20A3.09,3.09,0,0,0,3,19.8c0-.2.1-.6.1-.8H2.9a1,1,0,0,1-1,.8A1.39,1.39,0,0,1,.5,18.3a1.32,1.32,0,0,1,1.3-1.5.9.9,0,0,1,1,1h.1c0-.1.1-.5.1-.8v-.3c-.2,0-.7-.1-1.2-.1A1.71,1.71,0,0,0-.1,18.4,1.75,1.75,0,0,0,1.9,20Z" transform="translate(0.1 -3.4)"/><path class="cls-2" d="M5.5,20a1.8,1.8,0,1,0,0-3.6,1.73,1.73,0,0,0-1.8,1.8A1.68,1.68,0,0,0,5.5,20Zm0-3.3a1.37,1.37,0,0,1,1.3,1.5c0,.8-.4,1.5-1.2,1.5S4.3,19,4.3,18.1A1.27,1.27,0,0,1,5.5,16.7Z" transform="translate(0.1 -3.4)"/><path class="cls-2" d="M10.3,16.7h.2c.2,0,.3.1.3.7V19h0c-.6-.7-1.4-1.7-1.9-2.2-.1-.1-.2-.2-.3-.2H7.7v.1h.2a.37.37,0,0,1,.4.4V19c0,.7,0,.8-.3.8H7.8V20H9v-.1H8.8c-.2,0-.3-.1-.3-.8V17.3h0a23.89,23.89,0,0,1,2.3,2.8H11V17.6c0-.7,0-.8.3-.8h.2v-.1H10.3Z" transform="translate(0.1 -3.4)"/><path class="cls-2" d="M12.9,19.9c-.3,0-.4-.1-.4-.2a2.07,2.07,0,0,1,.2-.6l.1-.3h1.1l.2.4a1.34,1.34,0,0,1,.1.5c0,.1-.1.2-.3.2h-.2V20h1.5v-.1c-.2,0-.3,0-.4-.2s-1.1-2.6-1.3-3.1h-.1l-1.2,2.9c-.2.4-.3.4-.5.5h1.2Zm.4-2.5h0l.5,1.1h-1A11.73,11.73,0,0,0,13.3,17.4Z" transform="translate(0.1 -3.4)"/><path class="cls-2" d="M15.5,16.6v.1h.2c.2,0,.2.1.2.8V19c0,.7,0,.8-.2.8h-.2V20h1.3c.8,0,1.3-.4,1.3-1a.82.82,0,0,0-.9-.8h0a.87.87,0,0,0,.6-.8c0-.5-.4-.8-1.1-.8Zm2,2.5a.63.63,0,0,1-.7.7c-.3,0-.4-.1-.4-.7v-.8h.3C17.3,18.3,17.5,18.6,17.5,19.1Zm-.2-1.7a.53.53,0,0,1-.6.6h-.3V16.8c.1,0,.2-.1.3-.1A.66.66,0,0,1,17.3,17.4Z" transform="translate(0.1 -3.4)"/><path class="cls-2" d="M20,19.9h-.2c-.2,0-.2-.1-.2-.8V17.6c0-.7,0-.8.2-.8H20v-.1H18.5v.1h.2c.2,0,.2.1.2.8V19c0,.7,0,.8-.2.8h-.2V20H20Z" transform="translate(0.1 -3.4)"/><path class="cls-2" d="M22.2,20a1.8,1.8,0,1,0-1.8-1.8A1.68,1.68,0,0,0,22.2,20Zm0-3.3a1.37,1.37,0,0,1,1.3,1.5c0,.8-.4,1.5-1.2,1.5S21,19,21,18.1A1.27,1.27,0,0,1,22.2,16.7Z" transform="translate(0.1 -3.4)"/></svg>