<?xml version="1.0" encoding="utf-8"?>
<!-- Generator: Adobe Illustrator 22.0.1, SVG Export Plug-In . SVG Version: 6.00 Build 0)  -->
<svg version="1.1" id="Layer_1" xmlns="http://www.w3.org/2000/svg" xmlns:xlink="http://www.w3.org/1999/xlink" x="0px" y="0px"
	 viewBox="0 0 802 102" style="enable-background:new 0 0 802 102;" xml:space="preserve">
<style type="text/css">
	.st0{fill:#CACACA;}
	.st1{fill:url(#SVGID_1_);}
	.st2{fill:url(#SVGID_2_);}
	.st3{fill:#15A6FF;}
	.st4{fill:url(#SVGID_3_);}
</style>
<g>
	<g>
		<path class="st0" d="M20.9,86c-3.5,0-7.4-0.5-11.6-1.6C5,83.4,1.6,82.1-1,80.6l5.9-13.5c1.8,1,4.2,2,7.3,2.9
			c3.1,0.9,5.8,1.3,8.2,1.3c2.6,0,4.7-0.5,6.3-1.6s2.4-2.3,2.4-3.6c0-0.8-0.6-1.7-1.7-2.5c-1.1-0.8-3-2-5.5-3.5l-3-1.8
			c-4.5-2.6-7.9-4.8-10.4-6.5c-2.5-1.7-4.7-4-6.7-6.7c-2-2.8-2.9-5.9-2.9-9.3c0-3.7,1-7,3.1-9.9c2.1-2.9,5-5.2,8.7-6.8
			c3.7-1.6,8.1-2.5,13.1-2.5c3.4,0,6.9,0.5,10.5,1.5c3.6,1,6.6,2.3,9.2,4l-5.3,12.1c-3.5-1.2-6.1-2-8-2.4c-1.9-0.4-3.9-0.6-6.1-0.6
			c-2,0-3.6,0.5-4.8,1.4c-1.2,0.9-1.8,2-1.8,3.3c0,1,0.5,1.8,1.5,2.6c1,0.8,2.7,1.8,5.1,3l3.5,2c4.1,2.4,7.6,4.5,10.3,6.5
			c2.8,2,5.1,4.4,7,7.1c1.9,2.7,2.9,5.8,2.9,9.2c0,3.8-1.1,7.2-3.2,10.1c-2.2,2.9-5.3,5.3-9.3,7C31,85.2,26.3,86,20.9,86z"/>
		<path class="st0" d="M75.3,18v66.8H57.4V18H75.3z"/>
		<g>
			<linearGradient id="SVGID_1_" gradientUnits="userSpaceOnUse" x1="265.9761" y1="55" x2="265.9761" y2="18.3273">
				<stop  offset="0" style="stop-color:#15A6FF;stop-opacity:0"/>
				<stop  offset="1" style="stop-color:#15A6FF"/>
			</linearGradient>
			<path class="st1" d="M243.5,27.4c6-0.9,12.1-1.4,18.2-1.5c0.7,0,1.3,0,2,0c10.5,0,20.2,1.4,29,4.3c-1.3-2.6-3.1-4.7-5.5-6.5
				c-5.2-3.8-11.8-5.7-19.7-5.7h-28.1V28C240.6,27.8,242,27.6,243.5,27.4z"/>
			<linearGradient id="SVGID_2_" gradientUnits="userSpaceOnUse" x1="194.7265" y1="55" x2="194.7265" y2="18.3273">
				<stop  offset="0" style="stop-color:#15A6FF;stop-opacity:0"/>
				<stop  offset="1" style="stop-color:#15A6FF"/>
			</linearGradient>
			<path class="st2" d="M187.9,41.3c1.5-0.5,3.1-0.9,4.6-1.4c6-1.8,12.5-3.7,19.2-5.6L205.5,18h-17.9l-9.9,26.4
				C181.2,43.3,184.6,42.3,187.9,41.3z"/>
			<path class="st3" d="M324.2,57.9c-1.9-2.3-4-4.5-6.1-6.6c-0.7-0.6-1.3-1.2-2-1.8c-0.2-0.1-0.3-0.3-0.5-0.4
				c-0.3-0.3-0.6-0.5-0.9-0.8c-0.2-0.2-0.4-0.3-0.6-0.5c-0.4-0.3-0.7-0.6-1.1-0.9c-0.4-0.3-0.7-0.6-1.1-0.8
				c-0.3-0.2-0.5-0.4-0.8-0.6c-0.3-0.2-0.5-0.4-0.8-0.6c-0.3-0.2-0.5-0.4-0.8-0.6c-0.3-0.2-0.6-0.4-0.9-0.6
				c-0.2-0.2-0.4-0.3-0.7-0.5c-0.5-0.3-1-0.7-1.5-1c-0.2-0.1-0.4-0.3-0.6-0.4c-0.4-0.2-0.7-0.4-1.1-0.6c-0.2-0.1-0.4-0.3-0.6-0.4
				c-0.5-0.3-0.9-0.5-1.4-0.8c-0.1-0.1-0.2-0.1-0.3-0.2c-0.6-0.3-1.1-0.6-1.7-0.9c-0.2-0.1-0.4-0.2-0.5-0.3
				c-0.4-0.2-0.9-0.4-1.3-0.6c-0.2-0.1-0.4-0.2-0.5-0.2c-0.6-0.3-1.2-0.5-1.8-0.8c0,0,0,0,0,0c-0.6-0.2-1.1-0.5-1.7-0.7
				c-0.1,0-0.1-0.1-0.2-0.1c0,0,0,0,0,0c-9.8-3.8-20.5-5.3-30.9-5.3c-0.6,0-1.3,0-1.9,0c-5.9,0.1-11.7,0.6-17.5,1.5
				c-1.4,0.2-2.9,0.4-4.3,0.7c-0.2,0-0.4,0.1-0.6,0.1v0c-1.2,0.2-2.4,0.4-3.7,0.7c0,0,0,0,0,0c-0.8,0.2-1.6,0.3-2.5,0.5
				c-0.6,0.1-1.2,0.3-1.8,0.4c-0.5,0.1-1,0.2-1.6,0.3c-0.9,0.2-1.8,0.4-2.7,0.6c-1.3,0.3-2.5,0.6-3.8,0.9c-0.5,0.1-1.1,0.3-1.6,0.4
				c-0.7,0.2-1.3,0.3-2,0.5c-0.7,0.2-1.5,0.4-2.2,0.6c-0.4,0.1-0.8,0.2-1.2,0.3c-0.9,0.2-1.8,0.5-2.7,0.7
				c-5.8,1.6-11.5,3.3-17.1,4.9c-0.7,0.2-1.4,0.4-2.1,0.6v0c-0.1,0-0.2,0.1-0.3,0.1c-6.2,1.9-12.4,3.7-18.6,5.5l0,0c0,0,0,0,0,0
				c-1,0.3-2.1,0.6-3.1,0.9c-0.3,0.1-0.6,0.2-0.9,0.2c-0.8,0.2-1.7,0.5-2.5,0.7c-0.6,0.2-1.2,0.3-1.8,0.5c-0.6,0.2-1.2,0.3-1.8,0.5
				c-1.2,0.3-2.5,0.6-3.7,1c-2.6,0.7-5.3,1.3-7.9,1.9c0,0,0,0,0,0l0,0c-5.9,1.3-11.9,2.4-17.9,3.1v0c0,0,0,0,0,0
				c-1.8,0.2-3.6,0.4-5.4,0.5c0,0,0,0,0,0l0,0c-0.4,0-0.9,0.1-1.3,0.1c-2.4,0.2-4.8,0.2-7.2,0.2c-2.4,0-4.8-0.1-7.1-0.3l0,0
				c-0.1,0-0.2,0-0.3,0c-0.3,0-0.6,0-0.9-0.1c-0.2,0-0.4,0-0.7-0.1c-0.3,0-0.6-0.1-0.9-0.1c-0.2,0-0.4,0-0.7-0.1
				c-0.3,0-0.6-0.1-0.9-0.1c-0.2,0-0.4-0.1-0.7-0.1c-0.3,0-0.6-0.1-0.9-0.1c-0.1,0-0.2,0-0.2,0v0c-4-0.6-7.9-1.5-11.8-2.7
				c-2-0.6-4.1-1.3-6.1-2.2c-0.4-0.2-0.9-0.4-1.3-0.5c-0.3-0.1-0.5-0.2-0.8-0.3c-0.4-0.2-0.7-0.3-1.1-0.5c-0.2-0.1-0.5-0.2-0.7-0.3
				c-0.4-0.2-0.8-0.4-1.2-0.6c-0.2-0.1-0.3-0.2-0.5-0.2c-0.5-0.3-1-0.5-1.5-0.8c-0.1-0.1-0.2-0.1-0.4-0.2c-0.5-0.3-1.1-0.6-1.6-0.9
				c-0.3-0.2-0.6-0.3-0.9-0.5c-0.1,0-0.1-0.1-0.2-0.1l0,0c-2.1-1.2-4.1-2.5-6-3.8c-1.1-0.8-2.3-1.6-3.4-2.4
				c-1.1-0.9-2.2-1.7-3.4-2.6l0,0c-0.2-0.1-0.4-0.1-0.5,0c-0.2,0.2-0.2,0.4-0.1,0.6c6.3,7.8,14.4,14.6,23.6,19.4v24.3h17.9V67
				c1,0.2,1.9,0.4,2.9,0.6c5.8,1.1,11.8,1.6,17.7,1.6c2.1,0,4.3,0,6.4-0.1v15.6h17.9V67.1c3.5-0.6,7-1.3,10.5-2
				c2.1-0.5,4.2-1,6.3-1.5l-7.9,21.2h17.8l4.6-13.2h23.1l4.8,14.1l17.6-1.8l-12.9-34.1c4.1-1.2,8.1-2.4,12.2-3.4
				c3.2-0.8,6.4-1.6,9.6-2.4v40.7h17.9v-21h11.9l10.8,21h20.7l-14.7-26.3c2.8-1.9,5-4.3,6.6-7.3c1.3-2.4,2.1-5.2,2.3-8.2
				c5.1,1.5,10.1,3.6,14.9,6.2c1.2,0.7,2.4,1.3,3.6,2.1c1.2,0.8,2.4,1.5,3.5,2.3c1.1,0.8,2.3,1.6,3.4,2.5c1.1,0.9,2.2,1.7,3.3,2.6
				l0,0c0.2,0.1,0.4,0.1,0.5,0C324.3,58.4,324.3,58.1,324.2,57.9z M192.3,57.5c1.7-0.5,3.4-1,5.1-1.5c1.5-0.5,3-0.9,4.5-1.4l1.1,2.9
				H192.3z M273.8,47.2c-1.8,1.7-4,2.5-6.8,2.5h-9.8v-8.9c1.7-0.2,3.3-0.4,5-0.5c4.7-0.4,9.5-0.6,14.2-0.3c0,0.3,0,0.6,0,0.9
				C276.4,43.4,275.6,45.5,273.8,47.2z"/>
			<linearGradient id="SVGID_3_" gradientUnits="userSpaceOnUse" x1="122.3597" y1="55" x2="122.3597" y2="18.3273">
				<stop  offset="0" style="stop-color:#15A6FF;stop-opacity:0"/>
				<stop  offset="1" style="stop-color:#15A6FF"/>
			</linearGradient>
			<path class="st4" d="M98.6,51.5c3.3,1,6.7,1.8,10.3,2.4v-1.4l1.3,1.6c3.8,0.5,7.8,0.8,11.9,0.8c2.2,0,4.5-0.1,6.8-0.2
				c1.9-0.1,3.9-0.3,5.8-0.5l1.2-1.6v1.5c5.5-0.7,11.4-1.7,17.9-3.2V18h-11.9l-18.5,25.4L103.3,18H91v30.7
				C93.5,49.7,96,50.7,98.6,51.5z"/>
		</g>
	</g>
	<g>
		<path class="st0" d="M429.9,81.3c-17.2,0-31.3-9.4-31.3-29.7c0-18.8,12.6-30.1,32.3-30.1c7.7,0,16,2.2,19.8,2.2
			c0.2,1.1,0.5,3.4,0.5,5c0,4.3-0.8,11.4-1.1,13h-2.5c-0.1-11.7-6.4-16.2-16.8-16.2c-14.3,0-22.5,10.1-22.5,25.8
			c0,16,9.8,25.6,22.9,25.6c10.3,0,15.3-5.8,17-12.8h2.2c0,3.1-0.9,9.4-2.5,13C443.8,79.6,437.6,81.3,429.9,81.3z"/>
		<path class="st0" d="M461.5,51.8c0-18.6,13.4-30.4,30.7-30.4c18.2,0,30,12.1,30,29.5c0,18.6-13.5,30.3-30.7,30.3
			C473.4,81.3,461.5,69.3,461.5,51.8z M512.4,51.4c0-13.1-6.4-25.9-21.3-25.9c-13.5,0-20,10.9-20,25.4c0,13.6,6.8,26.1,21.7,26.1
			C506.3,77,512.4,65.4,512.4,51.4z"/>
		<path class="st0" d="M542.7,33.9l-0.5,0.2l0.2,30c0.1,12.3,0.8,13.4,4.6,13.7l4.1,0.4v1.9h-22.2v-1.9l3.9-0.4
			c3.8-0.3,4.5-1.6,4.6-13.7l0.2-32.1c0-4.6-2.3-6.6-6.4-7.1l-2.6-0.3v-2h14.3c1.3,0,3.1,1.5,5,3.6c8.9,9.7,22.4,25.4,32.6,37.9
			l0.5-0.2l-0.3-27.2c-0.1-10-1-11.4-4.5-11.7l-3.8-0.4v-2h21.3v2l-3.4,0.4c-3.9,0.4-4.4,2.4-4.4,13.7v41.5
			c-0.8,0.3-2.4,0.6-3.4,0.7C570.7,65.9,558.7,52,542.7,33.9z"/>
		<path class="st0" d="M594.8,80.1v-1.8c4.8-1,6.4-2,9-7.9l20.8-48.2c0.7-0.2,1.4-0.4,1.8-0.4c3.5,9,18.6,47.4,21.6,52.5
			c1.8,3,3.4,3.4,6.1,3.8v2h-24.8v-1.9l3.1-0.2c3.6-0.2,4.8-1,4.8-3.1c0-1.5-0.7-3.8-2.3-8l-2.5-6.7c-2.1,0-17.3,0.2-19.1,0.2
			l-2,4.9c-1.2,3.1-3,7.8-3,9.5c0,2.2,1.7,2.8,7.4,3.4v1.9H594.8z M623.3,37.3h-0.5c-2.5,5.9-5.6,13.3-8,19.2l16.1,0.2L623.3,37.3z"
			/>
		<path class="st0" d="M659.4,78.2l3.9-0.4c3.4-0.3,4.1-2.1,4.1-13.7V38.7c0-11.6-0.6-13.2-4.1-13.5l-3.9-0.4v-1.9
			c6-0.3,16.5-0.5,21.6-0.5c12.5,0,18.6,5.1,18.6,13.3c0,6.4-4.9,11-10.7,12.6v0.4c8.5,1.2,14.5,6.1,14.5,14
			c0,10.3-8.5,17.2-22,17.2h-22.1V78.2z M680.8,47.7c6.6-0.2,9.4-4.8,9.4-10.7c0-6.9-3.4-10.5-8.7-10.5c-1.9,0-4.1,0.4-5.5,0.9v20.5
			L680.8,47.7z M693.8,64.8c0-7.3-4.2-13.6-12.2-13.7l-5.6-0.2v13c0,11.7,1.1,12.6,6.4,12.6C688.6,76.5,693.8,72.8,693.8,64.8z"/>
		<path class="st0" d="M710.7,80.1v-1.9l3.9-0.4c3.5-0.4,4.1-2.1,4.1-13.7V38.7c0-11.7-0.6-13.3-4.1-13.7l-3.9-0.4v-2h24.6v2
			l-3.9,0.4c-3.5,0.4-4.1,2-4.1,13.7v25.4c0,11.7,0.5,13.3,4.1,13.7l3.9,0.4v1.9H710.7z"/>
		<path class="st0" d="M742.5,51.8c0-18.6,13.4-30.4,30.7-30.4c18.2,0,30,12.1,30,29.5c0,18.6-13.5,30.3-30.7,30.3
			C754.4,81.3,742.5,69.3,742.5,51.8z M793.5,51.4c0-13.1-6.4-25.9-21.3-25.9c-13.5,0-20,10.9-20,25.4c0,13.6,6.8,26.1,21.7,26.1
			C787.3,77,793.5,65.4,793.5,51.4z"/>
	</g>
	<g>
		<rect x="355.4" y="1.7" class="st0" width="2" height="99.4"/>
	</g>
</g>
</svg>
